<svg version="1.1" id="Layer_1" xmlns="http://www.w3.org/2000/svg" xmlns:xlink="http://www.w3.org/1999/xlink" x="0px" y="0px"
	 width="100%" viewBox="0 0 500 500" enable-background="new 0 0 500 500" xml:space="preserve">
<path fill="#000000" opacity="1.000000" stroke="none" 
	d="
M293.000000,501.000000 
	C195.333359,501.000000 98.166710,501.000000 1.000052,501.000000 
	C1.000035,334.333405 1.000035,167.666794 1.000017,1.000142 
	C167.666565,1.000094 334.333130,1.000094 500.999756,1.000047 
	C500.999847,167.666519 500.999847,334.333038 500.999939,500.999786 
	C431.833344,501.000000 362.666656,501.000000 293.000000,501.000000 
M369.993530,199.993073 
	C369.993530,199.993073 369.999298,199.922012 369.199585,200.308914 
	C369.135284,211.818436 369.051208,223.327957 369.061310,234.837402 
	C369.061859,235.453384 369.854767,236.068680 370.826630,236.861328 
	C371.207397,236.834290 371.588165,236.807251 372.898895,236.958817 
	C382.139893,236.958817 391.380890,236.958817 400.758209,236.958817 
	C400.758209,235.051987 400.758209,232.639343 400.758209,230.171860 
	C398.980774,230.171860 397.503815,230.171860 395.096558,230.048981 
	C391.618530,230.035828 388.140503,230.029587 384.662506,230.007996 
	C378.601929,229.970383 378.451996,229.771881 379.599945,222.940750 
	C382.808105,222.940750 386.091187,222.944748 389.374268,222.939926 
	C396.314667,222.929733 396.466705,222.747574 395.519257,215.029037 
	C393.650330,215.029037 391.698456,215.150497 389.767212,215.002655 
	C386.226044,214.731567 382.696991,214.301620 379.058716,213.099182 
	C379.079285,211.405197 379.099823,209.711197 379.041656,208.021393 
	C379.041656,208.021393 379.052277,208.099518 379.981140,208.031799 
	C386.887299,208.031799 393.793427,208.031799 400.831818,208.031799 
	C400.831818,205.005951 400.831818,202.557953 400.675934,199.226822 
	C391.588348,199.151947 382.500702,199.040939 373.413177,199.046997 
	C372.249451,199.047775 371.086121,199.657883 369.993530,199.993073 
M333.158905,201.001144 
	C329.093079,204.784164 331.315491,209.668640 331.097626,214.025146 
	C330.735504,221.266617 332.649658,222.906952 340.032501,222.990631 
	C345.010071,223.047058 349.987946,223.080811 355.032104,223.995804 
	C354.954651,225.579773 354.877228,227.163742 354.794861,228.848557 
	C347.035461,229.396622 339.684784,229.915802 332.000549,230.458557 
	C332.829193,233.021805 329.838989,237.187332 334.953461,237.323303 
	C343.213928,237.542938 351.491058,237.038177 359.761169,237.038773 
	C363.278137,237.039017 364.981506,235.619156 364.973511,232.114258 
	C364.964081,227.961288 364.925934,223.807434 364.995911,219.655563 
	C365.067657,215.396500 361.606934,214.581131 358.837067,214.295517 
	C355.165131,213.916840 351.373840,214.918900 347.627289,214.991745 
	C340.936127,215.121826 340.934082,215.016739 341.991791,208.024109 
	C349.196777,208.024109 356.401764,208.024109 363.786285,208.024109 
	C363.786285,205.012787 363.786285,202.580399 363.666473,199.256241 
	C355.231049,199.171616 346.795654,199.048950 338.360229,199.047073 
	C337.213562,199.046829 336.066772,199.650986 334.434204,200.111481 
	C334.267914,200.392746 334.101654,200.674026 333.997375,200.992676 
	C333.997375,200.992676 333.961090,200.930054 333.158905,201.001144 
M317.176514,200.372955 
	C317.120636,211.941238 317.049347,223.509521 317.054626,235.077789 
	C317.054901,235.650726 317.721405,236.223373 318.971069,236.940475 
	C321.548309,236.940475 324.125549,236.940475 326.713745,236.940475 
	C326.713745,224.313690 326.713745,212.312485 326.713745,200.203064 
	C323.613922,200.203064 320.829163,200.203064 317.176514,200.372955 
M133.817413,199.407822 
	C122.588287,199.407822 111.359154,199.407822 100.335129,199.407822 
	C100.335129,202.379868 100.335129,205.128555 100.335129,208.258194 
	C104.369492,208.258194 108.113029,208.258194 112.018906,208.258194 
	C112.018906,216.646439 111.966110,224.630524 112.066513,232.612671 
	C112.085068,234.087067 112.722847,235.553665 113.355682,237.665344 
	C115.836754,237.367172 118.317833,237.069000 121.681236,236.629013 
	C121.821762,227.108490 121.962296,217.587967 123.013069,208.003891 
	C126.609238,208.003891 130.205414,208.003891 133.746765,208.003891 
	C133.746765,204.980118 133.746765,202.663284 133.817413,199.407822 
M215.725418,237.111511 
	C218.058151,236.980011 220.390900,236.848511 223.647583,236.788910 
	C223.864182,232.246323 224.080780,227.703751 224.332840,222.417419 
	C227.857346,223.097183 230.972702,223.698029 233.992203,225.002640 
	C235.247864,227.460815 236.535889,229.903076 237.752243,232.380539 
	C240.101288,237.165039 244.798721,238.618896 250.074127,235.962204 
	C247.853134,231.305344 245.437546,226.720200 243.510269,221.938232 
	C242.839722,220.274506 242.814133,217.904434 243.465424,216.236267 
	C245.600861,210.766739 248.182693,205.471512 250.642990,199.997925 
	C246.420258,199.997925 242.860550,199.997925 239.522369,199.997925 
	C237.849213,203.348099 235.920319,206.136246 235.029724,209.223892 
	C233.329346,215.119034 228.929962,214.778885 223.629639,214.933563 
	C223.629639,209.619461 223.629639,204.613586 223.629639,199.654327 
	C220.282059,199.884186 217.708191,200.060928 214.283432,200.444382 
	C214.209976,212.123108 214.125244,223.801804 214.108383,235.480621 
	C214.107773,235.903442 214.774857,236.327209 215.725418,237.111511 
M186.951965,207.995636 
	C194.213776,207.995636 201.475571,207.995636 208.757843,207.995636 
	C208.757843,204.786270 208.757843,202.048294 208.757843,198.997513 
	C199.606857,198.997513 190.662247,198.974548 181.718414,199.046158 
	C181.082367,199.051270 180.451874,199.750778 179.070511,200.080643 
	C178.051712,201.748016 176.350540,203.338760 176.152924,205.098358 
	C175.710327,209.039474 175.743851,213.093307 176.160339,217.040375 
	C176.311493,218.473068 177.952194,220.706100 179.176254,220.898224 
	C183.857330,221.632889 188.641663,221.839798 193.394485,221.956100 
	C200.144272,222.121262 200.146927,222.012726 198.989273,228.964890 
	C191.677887,228.964890 184.366501,228.964890 176.409256,228.964890 
	C177.045120,232.186722 177.527344,234.630066 178.461899,237.671432 
	C183.905029,237.433228 189.345978,237.088806 194.791702,236.976837 
	C210.891403,236.645721 210.040665,240.354828 209.959824,221.388779 
	C209.939484,216.616043 206.871262,214.484009 202.101898,214.839478 
	C196.851822,215.230774 191.550049,214.928696 186.019333,214.928696 
	C186.019333,212.324295 186.019333,210.185104 186.951965,207.995636 
M279.097595,218.154785 
	C278.034607,213.067551 277.165436,207.926117 275.769165,202.932053 
	C275.429871,201.718552 273.468292,200.463531 272.053040,200.160873 
	C269.878815,199.695862 267.531860,200.038620 264.833069,200.038620 
	C267.795715,211.022644 271.279022,221.257919 273.129791,231.780334 
	C274.282593,238.334610 278.963287,236.814270 282.533478,237.631821 
	C283.225098,237.790192 285.253296,233.935257 285.987061,231.708206 
	C287.540466,226.993393 288.646637,222.131180 290.236542,216.211227 
	C291.356903,220.441437 292.208740,223.484558 292.962555,226.551743 
	C293.738342,229.708405 293.488586,233.783569 295.419556,235.789963 
	C297.124634,237.561646 301.213348,237.048691 304.255188,237.507675 
	C304.515228,237.546906 304.817139,237.308929 305.464508,237.058685 
	C308.715088,225.085068 312.023743,212.897507 315.446564,200.289536 
	C311.625793,200.289536 308.526611,200.289536 305.180267,200.289536 
	C303.639282,206.683167 302.114380,213.010193 300.293152,220.566635 
	C298.655975,214.406723 296.910583,209.484634 296.163605,204.415436 
	C295.711609,201.348129 295.097168,199.642899 291.798279,200.059326 
	C288.755249,200.443451 284.823364,198.344284 283.873077,203.959885 
	C283.016998,209.018890 281.042725,213.888641 279.097595,218.154785 
M150.802536,229.966599 
	C156.201141,230.165283 163.044968,227.575745 163.255524,236.672623 
	C166.843109,236.967834 169.874588,237.217300 173.938492,237.551712 
	C169.734161,224.804153 165.662003,212.457336 161.567917,200.044052 
	C157.100342,200.044052 152.935196,199.817764 148.820053,200.172195 
	C147.460037,200.289307 145.494064,201.642227 145.054718,202.875336 
	C141.396179,213.143723 138.003189,223.507538 134.623138,233.872894 
	C134.334244,234.758850 134.324051,236.249252 134.860550,236.799088 
	C136.846771,238.834656 144.535919,236.759705 145.429901,233.992493 
	C146.168594,231.705963 146.683090,229.402130 150.802536,229.966599 
M193.969223,255.037598 
	C193.408249,255.512589 192.288544,256.248535 192.370209,256.423370 
	C193.569534,258.991150 194.928879,261.484253 196.172119,263.846771 
	C197.017624,261.253143 197.971390,258.327423 199.058716,254.991989 
	C197.572128,254.991989 196.140839,254.991989 193.969223,255.037598 
M405.700287,259.713440 
	C403.219971,254.488892 401.909637,253.991684 399.359558,256.481384 
	C401.388428,258.427277 403.373596,260.331238 405.539734,262.408783 
	C405.656189,261.630554 405.748932,261.010742 405.700287,259.713440 
M388.192596,265.007568 
	C388.080048,265.126434 387.917145,265.228638 387.870575,265.369354 
	C387.832001,265.486053 387.953857,265.774261 387.964874,265.772217 
	C389.296417,265.525055 391.094727,265.677612 391.815399,264.869720 
	C392.490051,264.113434 392.564392,261.858643 391.921387,261.132538 
	C391.108765,260.214935 389.302399,260.177429 387.994202,259.781372 
	C388.345703,262.095490 388.548889,263.433380 388.192596,265.007568 
M435.699432,265.538971 
	C436.598816,265.856720 437.498169,266.174469 438.397522,266.492218 
	C438.509857,265.904999 438.622192,265.317749 438.734558,264.730530 
	C437.862122,264.847565 436.989716,264.964569 435.699432,265.538971 
M207.086395,260.167114 
	C207.530869,260.415863 207.975342,260.664612 208.419846,260.913330 
	C208.545135,260.534729 208.670425,260.156128 208.795700,259.777496 
	C208.281540,259.725952 207.767365,259.674377 207.086395,260.167114 
M399.392700,266.328583 
	C398.909271,265.968567 398.425812,265.608551 397.942352,265.248535 
	C397.752655,265.606903 397.562958,265.965302 397.373291,266.323700 
	C397.906799,266.472931 398.440338,266.622162 399.392700,266.328583 
M438.997406,260.692535 
	C439.134979,261.263519 439.272522,261.834503 439.410095,262.405457 
	C439.650177,262.309845 439.890228,262.214203 440.130310,262.118561 
	C439.779694,261.417511 439.429077,260.716492 438.997406,260.692535 
M440.483521,257.586823 
	C440.483521,257.586823 440.419617,257.478241 440.483521,257.586823 
M404.521606,264.337616 
	C404.521606,264.337616 404.401550,264.566132 404.401550,264.566132 
	C404.401550,264.566132 404.656372,264.525085 404.521606,264.337616 
M402.597565,266.514618 
	C402.597565,266.514618 402.476379,266.589264 402.597565,266.514618 
z"/>
<path fill="#2686DF" opacity="1.000000" stroke="none" 
	d="
M279.329620,218.498322 
	C281.042725,213.888641 283.016998,209.018890 283.873077,203.959885 
	C284.823364,198.344284 288.755249,200.443451 291.798279,200.059326 
	C295.097168,199.642899 295.711609,201.348129 296.163605,204.415436 
	C296.910583,209.484634 298.655975,214.406723 300.293152,220.566635 
	C302.114380,213.010193 303.639282,206.683167 305.180267,200.289536 
	C308.526611,200.289536 311.625793,200.289536 315.446564,200.289536 
	C312.023743,212.897507 308.715088,225.085068 305.464508,237.058685 
	C304.817139,237.308929 304.515228,237.546906 304.255188,237.507675 
	C301.213348,237.048691 297.124634,237.561646 295.419556,235.789963 
	C293.488586,233.783569 293.738342,229.708405 292.962555,226.551743 
	C292.208740,223.484558 291.356903,220.441437 290.236542,216.211227 
	C288.646637,222.131180 287.540466,226.993393 285.987061,231.708206 
	C285.253296,233.935257 283.225098,237.790192 282.533478,237.631821 
	C278.963287,236.814270 274.282593,238.334610 273.129791,231.780334 
	C271.279022,221.257919 267.795715,211.022644 264.833069,200.038620 
	C267.531860,200.038620 269.878815,199.695862 272.053040,200.160873 
	C273.468292,200.463531 275.429871,201.718552 275.769165,202.932053 
	C277.165436,207.926117 278.034607,213.067551 279.329620,218.498322 
z"/>
<path fill="#2887E0" opacity="1.000000" stroke="none" 
	d="
M150.350586,229.962830 
	C146.683090,229.402130 146.168594,231.705963 145.429901,233.992493 
	C144.535919,236.759705 136.846771,238.834656 134.860550,236.799088 
	C134.324051,236.249252 134.334244,234.758850 134.623138,233.872894 
	C138.003189,223.507538 141.396179,213.143723 145.054718,202.875336 
	C145.494064,201.642227 147.460037,200.289307 148.820053,200.172195 
	C152.935196,199.817764 157.100342,200.044052 161.567917,200.044052 
	C165.662003,212.457336 169.734161,224.804153 173.938492,237.551712 
	C169.874588,237.217300 166.843109,236.967834 163.255524,236.672623 
	C163.044968,227.575745 156.201141,230.165283 150.350586,229.962830 
M151.954803,214.611389 
	C151.235977,216.879852 150.517151,219.148315 149.725311,221.647202 
	C152.761002,221.647202 155.288330,221.647202 158.407074,221.647202 
	C156.798920,217.503281 155.379089,213.844666 153.750351,209.647736 
	C152.993301,211.511627 152.521805,212.672485 151.954803,214.611389 
z"/>
<path fill="#2185E1" opacity="1.000000" stroke="none" 
	d="
M199.909607,228.957901 
	C200.146927,222.012726 200.144272,222.121262 193.394485,221.956100 
	C188.641663,221.839798 183.857330,221.632889 179.176254,220.898224 
	C177.952194,220.706100 176.311493,218.473068 176.160339,217.040375 
	C175.743851,213.093307 175.710327,209.039474 176.152924,205.098358 
	C176.350540,203.338760 178.051712,201.748016 179.929230,200.086273 
	C189.716827,200.091904 198.645691,200.091904 207.774185,200.091904 
	C207.774185,202.620926 207.774185,204.516464 207.774185,206.965408 
	C203.678528,206.965408 199.881592,206.825684 196.100067,207.007095 
	C192.730972,207.168732 189.378906,207.685730 186.019333,208.045898 
	C186.019333,210.185104 186.019333,212.324295 186.019333,214.928696 
	C191.550049,214.928696 196.851822,215.230774 202.101898,214.839478 
	C206.871262,214.484009 209.939484,216.616043 209.959824,221.388779 
	C210.040665,240.354828 210.891403,236.645721 194.791702,236.976837 
	C189.345978,237.088806 183.905029,237.433228 178.228088,236.923584 
	C177.154129,231.487228 178.857407,229.716675 183.826614,229.916901 
	C189.166061,230.132034 194.546860,229.321106 199.909607,228.957901 
z"/>
<path fill="#2486E0" opacity="1.000000" stroke="none" 
	d="
M215.134338,200.237640 
	C217.708191,200.060928 220.282059,199.884186 223.629639,199.654327 
	C223.629639,204.613586 223.629639,209.619461 223.629639,214.933563 
	C228.929962,214.778885 233.329346,215.119034 235.029724,209.223892 
	C235.920319,206.136246 237.849213,203.348099 239.522369,199.997925 
	C242.860550,199.997925 246.420258,199.997925 250.642990,199.997925 
	C248.182693,205.471512 245.600861,210.766739 243.465424,216.236267 
	C242.814133,217.904434 242.839722,220.274506 243.510269,221.938232 
	C245.437546,226.720200 247.853134,231.305344 250.074127,235.962204 
	C244.798721,238.618896 240.101288,237.165039 237.752243,232.380539 
	C236.535889,229.903076 235.247864,227.460815 233.977676,224.217529 
	C232.375610,222.922058 230.820969,222.229538 229.194305,221.935776 
	C224.502747,221.088516 222.108749,222.599136 222.837204,227.897949 
	C223.233124,230.778015 222.788895,233.773560 222.723633,236.717010 
	C220.390900,236.848511 218.058151,236.980011 215.378387,236.481110 
	C215.065689,223.979691 215.100006,212.108673 215.134338,200.237640 
z"/>
<path fill="#1F85E3" opacity="1.000000" stroke="none" 
	d="
M341.067078,208.092712 
	C340.934082,215.016739 340.936127,215.121826 347.627289,214.991745 
	C351.373840,214.918900 355.165131,213.916840 358.837067,214.295517 
	C361.606934,214.581131 365.067657,215.396500 364.995911,219.655563 
	C364.925934,223.807434 364.964081,227.961288 364.973511,232.114258 
	C364.981506,235.619156 363.278137,237.039017 359.761169,237.038773 
	C351.491058,237.038177 343.213928,237.542938 334.953461,237.323303 
	C329.838989,237.187332 332.829193,233.021805 332.000549,230.458557 
	C339.684784,229.915802 347.035461,229.396622 354.794861,228.848557 
	C354.877228,227.163742 354.954651,225.579773 354.898010,223.167145 
	C353.275513,221.889206 351.803101,221.129745 350.295563,221.052185 
	C346.639069,220.864029 342.965454,221.039688 339.300110,220.982010 
	C335.290924,220.918945 332.979095,218.817673 333.054993,214.810181 
	C333.142670,210.179413 333.641022,205.556427 333.961060,200.930054 
	C333.961090,200.930054 333.997375,200.992676 334.439056,200.994873 
	C342.812256,200.998962 350.746765,200.897003 358.671936,201.122253 
	C359.775269,201.153610 360.832825,202.796448 361.911560,203.693314 
	C360.869141,204.461029 359.861755,205.828247 358.778168,205.891602 
	C354.331360,206.151520 349.851044,205.846344 345.405609,206.118042 
	C343.924744,206.208557 342.511322,207.402954 341.067078,208.092712 
z"/>
<path fill="#1E85E4" opacity="1.000000" stroke="none" 
	d="
M379.162903,213.937912 
	C382.696991,214.301620 386.226044,214.731567 389.767212,215.002655 
	C391.698456,215.150497 393.650330,215.029037 395.519257,215.029037 
	C396.466705,222.747574 396.314667,222.929733 389.374268,222.939926 
	C386.091187,222.944748 382.808105,222.940750 379.599945,222.940750 
	C378.451996,229.771881 378.601929,229.970383 384.662506,230.007996 
	C388.140503,230.029587 391.618530,230.035828 395.854492,230.323090 
	C399.247833,231.156937 401.235443,232.364548 399.224304,235.200546 
	C398.633026,236.034332 396.500336,235.925690 395.063354,235.983871 
	C387.367065,236.295547 379.667419,236.523376 371.968933,236.780212 
	C371.588165,236.807251 371.207397,236.834290 370.463745,236.517395 
	C370.119110,235.816650 370.137329,235.459824 370.387146,234.752197 
	C370.752502,225.139297 371.076294,215.874329 370.936829,206.616364 
	C370.870758,202.229218 372.455139,200.740250 376.749939,200.930908 
	C382.852600,201.201828 388.985321,200.819275 395.084869,201.123550 
	C396.732300,201.205750 398.306366,202.759766 399.914093,203.638184 
	C398.225159,204.434036 396.583099,205.764389 394.837830,205.917328 
	C390.891144,206.263214 386.882141,205.858215 382.923035,206.124100 
	C381.594574,206.213303 380.340393,207.409378 379.052277,208.099518 
	C379.052277,208.099518 379.041656,208.021393 378.805542,208.268478 
	C378.767242,210.323013 378.965088,212.130463 379.162903,213.937912 
z"/>
<path fill="#2185E1" opacity="1.000000" stroke="none" 
	d="
M120.798904,236.770828 
	C118.317833,237.069000 115.836754,237.367172 113.192665,236.873932 
	C113.017876,229.274384 113.001419,222.466232 112.995514,215.658096 
	C112.988159,207.161331 112.991554,207.174393 104.759293,206.948990 
	C103.641296,206.918396 102.528984,206.680222 101.231171,206.514862 
	C101.231171,204.378235 101.231171,202.484543 101.231171,200.346466 
	C112.276695,200.346466 123.011726,200.346466 133.746765,200.346466 
	C133.746765,202.663284 133.746765,204.980118 133.746765,208.003891 
	C130.205414,208.003891 126.609238,208.003891 122.263611,207.978516 
	C121.275734,217.559036 121.037323,227.164932 120.798904,236.770828 
z"/>
<path fill="#3481C8" opacity="1.000000" stroke="none" 
	d="
M379.516724,208.065659 
	C380.340393,207.409378 381.594574,206.213303 382.923035,206.124100 
	C386.882141,205.858215 390.891144,206.263214 394.837830,205.917328 
	C396.583099,205.764389 398.225159,204.434036 399.914093,203.638184 
	C398.306366,202.759766 396.732300,201.205750 395.084869,201.123550 
	C388.985321,200.819275 382.852600,201.201828 376.749939,200.930908 
	C372.455139,200.740250 370.870758,202.229218 370.936829,206.616364 
	C371.076294,215.874329 370.752502,225.139297 370.316711,234.276337 
	C370.009521,222.741547 370.004425,211.331772 369.999329,199.922012 
	C369.999298,199.922012 369.993530,199.993073 370.431580,199.994232 
	C380.857056,200.033569 390.844421,200.071747 400.831818,200.109940 
	C400.831818,202.557953 400.831818,205.005951 400.831818,208.031799 
	C393.793427,208.031799 386.887299,208.031799 379.516724,208.065659 
z"/>
<path fill="#3481C8" opacity="1.000000" stroke="none" 
	d="
M318.044373,200.203064 
	C320.829163,200.203064 323.613922,200.203064 326.713745,200.203064 
	C326.713745,212.312485 326.713745,224.313690 326.713745,236.940475 
	C324.125549,236.940475 321.548309,236.940475 318.489288,236.416321 
	C318.019806,223.995804 318.032074,212.099426 318.044373,200.203064 
M319.368256,226.629807 
	C319.279236,227.932373 319.166534,229.233826 319.106232,230.537720 
	C318.988678,233.079529 318.668854,235.706589 322.401459,235.995941 
	C326.382721,236.304550 326.008209,233.550140 326.010132,231.041000 
	C326.016663,222.564392 326.025116,214.087708 325.995544,205.611206 
	C325.988190,203.507019 326.468872,201.101440 323.061798,201.006088 
	C319.526031,200.907120 318.982147,203.018799 319.019379,205.847229 
	C319.106873,212.492950 319.122925,219.139603 319.368256,226.629807 
z"/>
<path fill="#3481C8" opacity="1.000000" stroke="none" 
	d="
M341.529419,208.058411 
	C342.511322,207.402954 343.924744,206.208557 345.405609,206.118042 
	C349.851044,205.846344 354.331360,206.151520 358.778168,205.891602 
	C359.861755,205.828247 360.869141,204.461029 361.911560,203.693314 
	C360.832825,202.796448 359.775269,201.153610 358.671936,201.122253 
	C350.746765,200.897003 342.812256,200.998962 334.408081,200.976196 
	C334.101654,200.674026 334.267914,200.392746 335.149536,200.081390 
	C345.172028,200.083527 354.479156,200.115784 363.786285,200.148026 
	C363.786285,202.580399 363.786285,205.012787 363.786285,208.024109 
	C356.401764,208.024109 349.196777,208.024109 341.529419,208.058411 
z"/>
<path fill="#3481C8" opacity="1.000000" stroke="none" 
	d="
M333.559998,200.965607 
	C333.641022,205.556427 333.142670,210.179413 333.054993,214.810181 
	C332.979095,218.817673 335.290924,220.918945 339.300110,220.982010 
	C342.965454,221.039688 346.639069,220.864029 350.295563,221.052185 
	C351.803101,221.129745 353.275513,221.889206 354.864807,222.731598 
	C349.987946,223.080811 345.010071,223.047058 340.032501,222.990631 
	C332.649658,222.906952 330.735504,221.266617 331.097626,214.025146 
	C331.315491,209.668640 329.093079,204.784164 333.559998,200.965607 
z"/>
<path fill="#ABD8FD" opacity="1.000000" stroke="none" 
	d="
M133.782089,199.877136 
	C123.011726,200.346466 112.276695,200.346466 101.231171,200.346466 
	C101.231171,202.484543 101.231171,204.378235 101.231171,206.514862 
	C102.528984,206.680222 103.641296,206.918396 104.759293,206.948990 
	C112.991554,207.174393 112.988159,207.161331 112.995514,215.658096 
	C113.001419,222.466232 113.017876,229.274384 113.052231,236.553192 
	C112.722847,235.553665 112.085068,234.087067 112.066513,232.612671 
	C111.966110,224.630524 112.018906,216.646439 112.018906,208.258194 
	C108.113029,208.258194 104.369492,208.258194 100.335129,208.258194 
	C100.335129,205.128555 100.335129,202.379868 100.335129,199.407822 
	C111.359154,199.407822 122.588287,199.407822 133.782089,199.877136 
z"/>
<path fill="#ABD8FD" opacity="1.000000" stroke="none" 
	d="
M186.485657,208.020752 
	C189.378906,207.685730 192.730972,207.168732 196.100067,207.007095 
	C199.881592,206.825684 203.678528,206.965408 207.774185,206.965408 
	C207.774185,204.516464 207.774185,202.620926 207.774185,200.091904 
	C198.645691,200.091904 189.716827,200.091904 180.303375,200.109650 
	C180.451874,199.750778 181.082367,199.051270 181.718414,199.046158 
	C190.662247,198.974548 199.606857,198.997513 208.757843,198.997513 
	C208.757843,202.048294 208.757843,204.786270 208.757843,207.995636 
	C201.475571,207.995636 194.213776,207.995636 186.485657,208.020752 
z"/>
<path fill="#3481C8" opacity="1.000000" stroke="none" 
	d="
M372.433899,236.869507 
	C379.667419,236.523376 387.367065,236.295547 395.063354,235.983871 
	C396.500336,235.925690 398.633026,236.034332 399.224304,235.200546 
	C401.235443,232.364548 399.247833,231.156937 396.319641,230.384521 
	C397.503815,230.171860 398.980774,230.171860 400.758209,230.171860 
	C400.758209,232.639343 400.758209,235.051987 400.758209,236.958817 
	C391.380890,236.958817 382.139893,236.958817 372.433899,236.869507 
z"/>
<path fill="#D6FFFF" opacity="1.000000" stroke="none" 
	d="
M369.599457,200.115463 
	C370.004425,211.331772 370.009521,222.741547 370.085083,234.627167 
	C370.137329,235.459824 370.119110,235.816650 370.189819,236.428864 
	C369.854767,236.068680 369.061859,235.453384 369.061310,234.837402 
	C369.051208,223.327957 369.135284,211.818436 369.599457,200.115463 
z"/>
<path fill="#D6FFFF" opacity="1.000000" stroke="none" 
	d="
M317.610443,200.288010 
	C318.032074,212.099426 318.019806,223.995804 318.042603,236.344162 
	C317.721405,236.223373 317.054901,235.650726 317.054626,235.077789 
	C317.049347,223.509521 317.120636,211.941238 317.610443,200.288010 
z"/>
<path fill="#66A0D6" opacity="1.000000" stroke="none" 
	d="
M214.708893,200.341003 
	C215.100006,212.108673 215.065689,223.979691 215.081055,236.300629 
	C214.774857,236.327209 214.107773,235.903442 214.108383,235.480621 
	C214.125244,223.801804 214.209976,212.123108 214.708893,200.341003 
z"/>
<path fill="#151515" opacity="1.000000" stroke="none" 
	d="
M194.339386,255.014801 
	C196.140839,254.991989 197.572128,254.991989 199.058716,254.991989 
	C197.971390,258.327423 197.017624,261.253143 196.172119,263.846771 
	C194.928879,261.484253 193.569534,258.991150 192.370209,256.423370 
	C192.288544,256.248535 193.408249,255.512589 194.339386,255.014801 
z"/>
<path fill="#ABD8FD" opacity="1.000000" stroke="none" 
	d="
M400.753876,199.668381 
	C390.844421,200.071747 380.857056,200.033569 370.396118,199.990540 
	C371.086121,199.657883 372.249451,199.047775 373.413177,199.046997 
	C382.500702,199.040939 391.588348,199.151947 400.753876,199.668381 
z"/>
<path fill="#66A0D6" opacity="1.000000" stroke="none" 
	d="
M121.240074,236.699921 
	C121.037323,227.164932 121.275734,217.559036 121.808487,208.010284 
	C121.962296,217.587967 121.821762,227.108490 121.240074,236.699921 
z"/>
<path fill="#66A0D6" opacity="1.000000" stroke="none" 
	d="
M199.449432,228.961395 
	C194.546860,229.321106 189.166061,230.132034 183.826614,229.916901 
	C178.857407,229.716675 177.154129,231.487228 178.001923,236.624573 
	C177.527344,234.630066 177.045120,232.186722 176.409256,228.964890 
	C184.366501,228.964890 191.677887,228.964890 199.449432,228.961395 
z"/>
<path fill="#ABD8FD" opacity="1.000000" stroke="none" 
	d="
M363.726379,199.702133 
	C354.479156,200.115784 345.172028,200.083527 335.392456,200.013290 
	C336.066772,199.650986 337.213562,199.046829 338.360229,199.047073 
	C346.795654,199.048950 355.231049,199.171616 363.726379,199.702133 
z"/>
<path fill="#ABD8FD" opacity="1.000000" stroke="none" 
	d="
M223.185608,236.752960 
	C222.788895,233.773560 223.233124,230.778015 222.837204,227.897949 
	C222.108749,222.599136 224.502747,221.088516 229.194305,221.935776 
	C230.820969,222.229538 232.375610,222.922058 234.025604,223.865662 
	C230.972702,223.698029 227.857346,223.097183 224.332840,222.417419 
	C224.080780,227.703751 223.864182,232.246323 223.185608,236.752960 
z"/>
<path fill="#151515" opacity="1.000000" stroke="none" 
	d="
M405.770966,260.052185 
	C405.748932,261.010742 405.656189,261.630554 405.539734,262.408783 
	C403.373596,260.331238 401.388428,258.427277 399.359558,256.481384 
	C401.909637,253.991684 403.219971,254.488892 405.770966,260.052185 
z"/>
<path fill="#151515" opacity="1.000000" stroke="none" 
	d="
M388.472351,264.889404 
	C388.548889,263.433380 388.345703,262.095490 387.994202,259.781372 
	C389.302399,260.177429 391.108765,260.214935 391.921387,261.132538 
	C392.564392,261.858643 392.490051,264.113434 391.815399,264.869720 
	C391.094727,265.677612 389.296417,265.525055 387.964874,265.772217 
	C387.953857,265.774261 387.832001,265.486053 387.870575,265.369354 
	C387.917145,265.228638 388.080048,265.126434 388.472351,264.889404 
z"/>
<path fill="#151515" opacity="1.000000" stroke="none" 
	d="
M435.908356,265.310272 
	C436.989716,264.964569 437.862122,264.847565 438.734558,264.730530 
	C438.622192,265.317749 438.509857,265.904999 438.397522,266.492218 
	C437.498169,266.174469 436.598816,265.856720 435.908356,265.310272 
z"/>
<path fill="#3481C8" opacity="1.000000" stroke="none" 
	d="
M379.110809,213.518555 
	C378.965088,212.130463 378.767242,210.323013 378.844910,208.266388 
	C379.099823,209.711197 379.079285,211.405197 379.110809,213.518555 
z"/>
<path fill="#ABD8FD" opacity="1.000000" stroke="none" 
	d="
M207.169800,259.894958 
	C207.767365,259.674377 208.281540,259.725952 208.795715,259.777527 
	C208.670425,260.156128 208.545135,260.534729 208.419830,260.913330 
	C207.975342,260.664612 207.530869,260.415863 207.169800,259.894958 
z"/>
<path fill="#151515" opacity="1.000000" stroke="none" 
	d="
M399.183289,266.549988 
	C398.440338,266.622162 397.906799,266.472931 397.373291,266.323700 
	C397.562958,265.965302 397.752655,265.606903 397.942383,265.248535 
	C398.425812,265.608551 398.909271,265.968567 399.183289,266.549988 
z"/>
<path fill="#66A0D6" opacity="1.000000" stroke="none" 
	d="
M439.037933,260.354004 
	C439.429077,260.716492 439.779694,261.417511 440.130310,262.118561 
	C439.890228,262.214203 439.650177,262.309845 439.410095,262.405457 
	C439.272522,261.834503 439.134979,261.263519 439.037933,260.354004 
z"/>
<path fill="#151515" opacity="1.000000" stroke="none" 
	d="
M440.451569,257.532532 
	C440.419617,257.478241 440.483521,257.586823 440.451569,257.532532 
z"/>
<path fill="#151515" opacity="1.000000" stroke="none" 
	d="
M404.588989,264.431335 
	C404.656372,264.525085 404.401550,264.566132 404.401550,264.566132 
	C404.401550,264.566132 404.521606,264.337616 404.588989,264.431335 
z"/>
<path fill="#151515" opacity="1.000000" stroke="none" 
	d="
M402.536987,266.551941 
	C402.476379,266.589264 402.597565,266.514618 402.536987,266.551941 
z"/>
<path fill="#000000" opacity="1.000000" stroke="none" 
	d="
M152.002563,214.222366 
	C152.521805,212.672485 152.993301,211.511627 153.750351,209.647736 
	C155.379089,213.844666 156.798920,217.503281 158.407074,221.647202 
	C155.288330,221.647202 152.761002,221.647202 149.725311,221.647202 
	C150.517151,219.148315 151.235977,216.879852 152.002563,214.222366 
z"/>
<path fill="#1E85E4" opacity="1.000000" stroke="none" 
	d="
M319.268066,226.207855 
	C319.122925,219.139603 319.106873,212.492950 319.019379,205.847229 
	C318.982147,203.018799 319.526031,200.907120 323.061798,201.006088 
	C326.468872,201.101440 325.988190,203.507019 325.995544,205.611206 
	C326.025116,214.087708 326.016663,222.564392 326.010132,231.041000 
	C326.008209,233.550140 326.382721,236.304550 322.401459,235.995941 
	C318.668854,235.706589 318.988678,233.079529 319.106232,230.537720 
	C319.166534,229.233826 319.279236,227.932373 319.268066,226.207855 
z"/>
</svg>