<svg version="1.1" id="Layer_1" xmlns="http://www.w3.org/2000/svg" xmlns:xlink="http://www.w3.org/1999/xlink" x="0px" y="0px"
	 width="100%" viewBox="0 0 500 500" enable-background="new 0 0 500 500" xml:space="preserve">
<path fill="#000000" opacity="1.000000" stroke="none" 
	d="
M329.000000,501.000000 
	C219.333359,501.000000 110.166718,501.000000 1.000059,501.000000 
	C1.000039,334.333405 1.000039,167.666794 1.000020,1.000148 
	C167.666565,1.000099 334.333130,1.000099 500.999756,1.000049 
	C500.999847,167.666519 500.999847,334.333038 500.999939,500.999786 
	C443.833344,501.000000 386.666656,501.000000 329.000000,501.000000 
M215.459747,191.116241 
	C215.149811,191.305389 214.986252,191.581314 214.974365,191.972061 
	C214.974365,191.972061 214.942230,191.968246 214.138687,191.976562 
	C208.135574,190.527557 202.122070,189.119614 196.134995,187.607147 
	C194.058197,187.082520 192.383759,186.724609 191.357773,183.833405 
	C190.699722,181.978989 186.385742,180.607697 183.705902,180.599747 
	C182.174088,180.595200 179.418167,183.731812 179.380539,185.500244 
	C179.324020,188.155548 181.170151,190.851318 182.207245,193.529892 
	C183.135895,196.216888 182.713226,199.338776 182.867569,202.431870 
	C183.112503,207.340790 178.467072,209.254059 176.127594,213.355576 
	C170.881912,213.778046 165.520447,215.899994 160.643845,211.674271 
	C159.936417,211.061264 157.424973,211.682465 156.414612,212.528381 
	C155.569199,213.236206 155.006348,215.634338 155.548950,216.346741 
	C156.485870,217.576889 158.469254,218.898468 159.852295,218.743362 
	C165.244110,218.138718 170.572632,216.969482 176.218643,216.620529 
	C177.779831,218.098389 179.341034,219.576233 180.909760,221.883743 
	C180.608398,223.320816 180.084290,224.751617 180.043594,226.196030 
	C179.850861,233.038910 180.522980,240.123795 173.216812,245.270218 
	C169.445007,245.028549 165.675156,244.747345 161.900589,244.561996 
	C160.028992,244.470078 157.906296,244.047501 156.377518,244.778732 
	C155.643600,245.129776 155.318604,248.560532 156.065140,249.265137 
	C157.210190,250.345886 159.852539,251.150879 161.137985,250.544220 
	C166.559006,247.985794 171.398834,248.010498 176.153885,252.593063 
	C176.368073,252.867599 176.648712,252.990891 177.420761,253.551834 
	C178.744293,255.541306 180.669189,257.361420 181.285645,259.550049 
	C183.751251,268.303833 185.810440,277.172150 187.406723,286.342865 
	C185.002274,288.912018 183.872055,292.032806 186.674957,294.560333 
	C188.340393,296.062103 191.382797,296.892120 193.664856,296.656464 
	C197.173431,296.294159 197.755264,293.217438 198.043732,289.980408 
	C198.212906,288.081940 199.735367,286.304138 200.864426,284.307709 
	C200.864426,284.307709 200.973206,284.055084 201.656479,283.915100 
	C204.088242,281.761719 206.325989,279.319885 208.997528,277.523010 
	C212.934097,274.875305 215.374405,269.846008 221.739761,269.992676 
	C228.354614,272.157227 232.835892,269.372589 234.823257,261.214813 
	C234.771149,260.471832 234.719040,259.728851 234.708359,258.539032 
	C234.562683,258.246613 234.328064,258.077820 233.880585,257.504150 
	C233.820724,257.333374 233.760849,257.162628 233.727325,256.550568 
	C233.581497,256.252899 233.342865,256.105713 232.805618,255.629333 
	C232.534592,255.421005 232.263580,255.212677 231.815536,254.440445 
	C231.213120,253.958511 230.610687,253.476593 229.463226,252.395508 
	C225.343369,251.908112 221.109543,250.918442 217.452942,255.276749 
	C216.676849,255.827087 215.900757,256.377441 214.644058,256.345856 
	C206.456253,253.879318 198.222351,251.550827 190.114731,248.844086 
	C188.211914,248.208832 186.735977,246.294998 184.955139,244.390976 
	C184.644974,243.922028 184.334808,243.453094 183.848053,242.507370 
	C183.577927,242.312164 183.307785,242.116974 182.856003,241.490814 
	C182.671158,241.221039 182.420624,241.044464 182.032181,240.139709 
	C181.946640,238.771088 181.861099,237.402451 181.902710,235.182846 
	C182.606384,230.469757 183.310059,225.756668 184.542389,220.914963 
	C184.714539,220.857880 184.886688,220.800812 185.473038,220.767365 
	C185.770584,220.620178 185.873840,220.386932 186.148270,219.392685 
	C187.048172,217.388046 187.948074,215.383408 188.777557,213.535645 
	C197.160782,209.381088 205.592163,205.202667 214.791077,200.952362 
	C216.263123,201.577393 217.709610,202.273575 219.212265,202.813370 
	C222.928238,204.148224 226.354630,204.020416 228.725677,200.330353 
	C231.034882,196.736511 230.450226,192.349335 227.032562,189.708099 
	C223.742569,187.165497 220.206253,186.734268 216.477722,190.143646 
	C216.183456,190.331161 216.030991,190.599335 215.952347,190.945267 
	C215.952347,190.945267 215.946655,191.013046 215.459747,191.116241 
M313.122650,142.911026 
	C313.122650,142.911026 312.952942,142.898148 312.897888,142.451431 
	C312.722046,142.111176 312.467438,142.035400 311.431641,141.982574 
	C301.752258,135.963654 291.077698,132.856995 278.992310,131.078384 
	C273.004883,131.069305 266.868195,130.216110 261.063904,131.242599 
	C251.592178,132.917648 242.337265,135.818649 232.323151,138.069321 
	C231.535660,138.459305 230.748169,138.849289 229.477127,139.155792 
	C229.163773,139.333466 228.999176,139.602249 228.239471,140.035751 
	C220.429550,143.695541 212.604279,147.331940 206.220657,154.299622 
	C205.076035,155.587463 203.931396,156.875305 202.238876,158.477127 
	C200.032700,162.617081 197.387482,166.589417 195.727158,170.937790 
	C193.452499,176.895096 196.099792,183.040649 201.415894,184.844894 
	C206.978775,186.732864 212.611343,186.490723 218.804657,183.964249 
	C224.175156,182.238449 229.545639,180.512665 235.196594,179.523224 
	C235.883636,182.659592 236.570663,185.795959 237.143860,189.735641 
	C234.726257,199.017303 229.041428,205.807556 220.216324,211.030991 
	C213.247589,212.062073 206.144623,212.723587 200.145065,218.394012 
	C199.516418,219.337723 198.841782,220.254303 198.266754,221.229630 
	C195.007767,226.757431 194.584518,232.762375 197.895844,238.020477 
	C201.115875,243.133636 206.497849,244.706039 212.612213,243.034225 
	C216.685211,241.920578 220.843597,241.119217 225.418472,240.728119 
	C231.611130,242.017838 236.474411,245.532288 241.087402,250.658600 
	C243.944305,255.458054 244.469986,260.545380 242.409271,266.175476 
	C242.258240,266.775391 242.107208,267.375336 241.993607,267.995697 
	C241.993607,267.995697 241.971039,267.958313 241.368607,268.314392 
	C240.193146,270.458588 239.463577,273.082428 237.763763,274.662598 
	C230.993164,280.956757 223.920227,286.925720 216.315536,293.258972 
	C206.539703,300.262756 196.763870,307.266541 186.348801,314.396393 
	C181.342804,318.423431 176.229904,322.326263 171.363220,326.515137 
	C167.152985,330.139008 163.034119,333.982697 163.210587,341.116882 
	C168.499527,340.337311 173.309280,339.493683 178.152313,338.942810 
	C187.936157,337.829987 197.171738,340.010315 206.387878,344.562805 
	C210.260117,346.733093 214.132355,348.903351 218.312531,351.667389 
	C221.221970,353.391632 224.131409,355.115875 227.603226,357.250305 
	C228.142502,357.833588 228.582306,358.581726 229.235672,358.975891 
	C243.623688,367.656311 258.829437,372.796753 276.693634,369.704132 
	C284.019562,368.237122 290.672577,365.319305 296.098145,361.297485 
	C292.907959,355.924652 289.964264,350.967010 287.020111,345.986511 
	C287.020111,345.986511 286.999481,345.976685 286.958527,345.065613 
	C286.942108,341.717987 286.925690,338.370361 287.451782,334.603516 
	C288.322388,332.732941 289.192963,330.862335 290.630829,328.700531 
	C292.087067,327.139069 293.543274,325.577606 295.646332,323.737885 
	C297.858124,324.009369 300.065948,324.472198 302.282379,324.517853 
	C310.186432,324.680695 318.093353,324.701660 326.689545,324.882172 
	C327.151733,324.838226 327.613922,324.794281 328.513458,324.755157 
	C328.789673,324.604401 328.954468,324.373932 329.706177,323.895447 
	C334.473724,322.197784 338.088928,319.440338 338.604706,313.201111 
	C338.420380,305.814758 338.236053,298.428436 338.659119,290.713226 
	C341.061462,288.121216 344.384033,285.679749 340.055450,281.229706 
	C341.560913,280.444336 343.390228,279.959869 344.479492,278.787720 
	C345.537994,277.648651 346.462250,275.744751 346.322632,274.283997 
	C346.118774,272.150421 344.911743,270.112732 344.712128,267.671570 
	C346.780579,265.434479 348.848999,263.197418 350.981171,260.979797 
	C350.981171,260.979797 350.975067,260.913452 351.645020,260.935059 
	C352.084747,260.870911 352.524445,260.806763 353.677094,260.650452 
	C356.032745,259.576508 358.560944,258.769226 360.711212,257.377869 
	C366.757080,253.465683 367.461060,249.054794 362.902588,243.533585 
	C359.080902,238.904678 354.991119,234.497131 350.905273,229.459991 
	C350.848724,229.287766 350.792206,229.115555 350.813324,228.487701 
	C350.654297,228.182098 350.402527,228.029068 350.059601,227.950455 
	C350.059601,227.950455 349.981628,227.944962 349.942322,227.283249 
	C349.310974,226.191910 348.679596,225.100571 348.054230,223.955704 
	C348.054230,223.955704 348.000732,223.949722 347.982208,223.224335 
	C347.670868,222.154297 347.359558,221.084259 346.936157,219.472961 
	C346.884369,219.296158 346.832550,219.119339 346.939270,218.058884 
	C346.897583,215.057343 346.855865,212.055786 346.955780,208.215271 
	C347.226593,205.145279 347.497437,202.075302 347.905670,198.332153 
	C347.856964,197.880096 347.808228,197.428055 347.891449,196.494141 
	C347.891449,196.494141 347.838165,195.997147 348.008362,195.178391 
	C347.381561,192.124878 346.754730,189.071365 345.966980,185.408096 
	C345.656494,184.911011 345.345978,184.413910 345.021942,183.983978 
	C345.021942,183.983978 345.090393,183.987213 344.987366,183.205917 
	C341.389008,176.504959 337.790649,169.804001 333.828644,162.477966 
	C327.569031,156.650360 321.309387,150.822754 314.884949,144.471191 
	C314.577820,144.291092 314.270721,144.111008 313.866425,143.491760 
	C313.702423,143.198471 313.452698,143.061584 313.122650,142.911026 
M164.201477,194.754669 
	C161.996002,198.297134 163.173370,201.677933 166.314743,203.138107 
	C168.226364,204.026657 172.617416,203.183411 173.552109,201.670639 
	C174.754227,199.725067 174.647888,195.464203 173.230453,193.759384 
	C171.093521,191.189209 167.391800,190.902008 164.201477,194.754669 
M174.872498,273.600128 
	C172.415283,271.470642 169.562225,270.844818 167.570435,273.607330 
	C166.623917,274.920135 166.620575,278.138336 167.601761,279.279755 
	C168.635162,280.481842 172.238068,281.211029 173.132736,280.399292 
	C174.559998,279.104309 174.675476,276.363556 174.872498,273.600128 
M138.709137,229.001556 
	C136.109741,231.380310 135.396149,234.189194 138.383667,236.414841 
	C139.647293,237.356262 143.253128,237.429291 143.783081,236.604568 
	C144.874603,234.905914 145.316772,232.081070 144.639221,230.226257 
	C144.246506,229.151184 141.157150,229.061188 138.709137,229.001556 
M174.270950,168.432495 
	C178.576263,171.063812 182.378571,170.324493 182.773102,166.553223 
	C182.933029,165.024597 182.129486,162.624603 180.974243,161.924026 
	C179.531235,161.048950 176.345657,160.710648 175.580078,161.590973 
	C174.365250,162.987823 174.532455,165.586624 174.270950,168.432495 
M144.697754,266.750702 
	C145.989975,267.166107 147.270828,267.774506 148.582962,267.851776 
	C148.884583,267.869507 149.756058,265.929535 149.525894,265.133057 
	C149.285477,264.301147 147.597549,263.042480 147.299149,263.222809 
	C146.175171,263.901855 145.359406,265.091095 144.697754,266.750702 
M159.326263,182.031540 
	C159.472076,180.805420 160.115326,179.280502 159.612778,178.443787 
	C159.178360,177.720505 157.302567,177.339478 156.330658,177.647842 
	C155.690140,177.851044 154.918716,180.076248 155.261795,180.465546 
	C156.118515,181.437668 157.577560,181.878967 159.326263,182.031540 
M146.051071,201.047287 
	C143.138138,200.731140 142.445053,202.490601 143.348236,204.634979 
	C143.674301,205.409149 146.130859,206.157852 146.903763,205.704712 
	C149.028305,204.459106 148.904602,202.642227 146.051071,201.047287 
z"/>
<path fill="#2297E5" opacity="1.000000" stroke="none" 
	d="
M347.759521,196.975998 
	C347.808228,197.428055 347.856964,197.880096 347.537689,198.801910 
	C345.652344,201.378204 344.134979,203.484772 342.617615,205.591324 
	C342.405182,204.933136 342.192780,204.274948 341.980347,203.616760 
	C339.625214,203.283203 337.273407,202.725281 334.913879,202.690552 
	C333.179474,202.665039 331.328613,203.885971 329.713715,203.580002 
	C323.251007,202.355499 316.147308,205.156143 310.210358,200.551346 
	C310.045929,200.423828 309.383667,200.938171 308.669434,200.961914 
	C306.733582,198.745987 305.342865,196.411285 303.378693,194.757706 
	C298.455994,190.613388 293.273621,186.777527 287.903625,182.651123 
	C283.724030,180.261444 279.836243,178.038574 275.752319,175.653015 
	C275.239258,175.365906 274.922302,175.241470 274.445251,175.128632 
	C274.285156,175.140244 273.995911,175.001053 273.736298,174.792709 
	C272.829163,174.441589 272.181641,174.298813 271.394653,174.191452 
	C271.255157,174.226883 270.995178,174.103424 270.932434,173.729477 
	C268.171082,164.943542 265.472412,156.531555 262.531433,147.364227 
	C266.329620,147.161591 268.766266,147.031586 271.505859,147.072876 
	C275.343384,149.826935 279.429871,151.912659 282.297546,155.096237 
	C288.226166,161.677917 294.873627,166.387207 303.959442,166.854126 
	C307.275482,167.024551 310.599518,167.068115 313.920654,167.105881 
	C324.413483,167.225204 332.410126,171.554230 337.691895,180.801453 
	C340.652252,185.984390 343.902771,191.001556 347.120911,196.259476 
	C347.369629,196.638168 347.549713,196.821655 347.759521,196.975998 
z"/>
<path fill="#0B16A2" opacity="1.000000" stroke="none" 
	d="
M290.063568,328.991760 
	C289.192963,330.862335 288.322388,332.732941 286.973267,335.145233 
	C286.662994,339.116852 286.831238,342.546783 286.999481,345.976685 
	C286.999481,345.976685 287.020111,345.986511 287.008301,346.377808 
	C285.280670,354.297974 279.559845,357.592255 272.743713,359.797974 
	C269.206421,359.435913 265.913086,358.999207 262.655396,359.185547 
	C257.265533,359.493866 249.364136,354.534149 248.441422,349.250610 
	C247.858871,345.914917 248.131638,342.288879 248.744492,338.924896 
	C249.364182,335.523407 250.876129,332.284424 252.294617,328.754639 
	C265.137878,324.147064 277.611450,325.690033 290.063568,328.991760 
z"/>
<path fill="#091799" opacity="1.000000" stroke="none" 
	d="
M270.995178,174.103424 
	C270.995178,174.103424 271.255157,174.226883 271.653687,174.412552 
	C272.700104,174.732498 273.348022,174.866776 273.995911,175.001038 
	C273.995911,175.001053 274.285156,175.140244 274.622528,175.326660 
	C275.289398,175.613953 275.618927,175.714813 275.948425,175.815674 
	C279.836243,178.038574 283.724030,180.261444 287.993469,182.977966 
	C298.416168,193.112381 302.934784,205.883438 307.412018,218.455444 
	C311.058960,228.695953 313.333069,239.425369 316.304657,250.281067 
	C321.511322,264.786560 326.316833,268.865448 337.697327,269.230804 
	C329.961700,271.566681 324.033417,269.092072 319.212799,263.458740 
	C317.711548,261.704376 316.455078,259.740540 314.921570,257.564575 
	C311.220428,248.752914 307.684296,240.249268 303.961639,231.439178 
	C302.571655,227.878632 301.368195,224.624527 300.154419,221.007904 
	C299.775146,220.075104 299.406189,219.504822 299.055786,218.961731 
	C299.074341,218.988922 299.117920,218.939545 299.109528,218.556213 
	C296.048462,208.198242 291.424774,198.995895 284.426422,191.259918 
	C273.706116,179.409760 255.367966,178.605698 239.436951,188.923172 
	C238.502121,188.930481 237.879913,188.931412 237.257690,188.932343 
	C236.570663,185.795959 235.883636,182.659592 235.306335,178.905899 
	C238.601013,177.212296 241.785934,176.136017 245.381165,175.059021 
	C248.208847,174.649811 250.626205,174.241333 253.365402,173.855835 
	C254.282333,173.646500 254.877441,173.414200 255.894775,173.240433 
	C261.209747,173.567123 266.102448,173.835281 270.995178,174.103424 
z"/>
<path fill="#1F8EE2" opacity="1.000000" stroke="none" 
	d="
M308.953552,201.153229 
	C309.383667,200.938171 310.045929,200.423828 310.210358,200.551346 
	C316.147308,205.156143 323.251007,202.355499 329.713715,203.580002 
	C331.328613,203.885971 333.179474,202.665039 334.913879,202.690552 
	C337.273407,202.725281 339.625214,203.283203 341.980347,203.616760 
	C342.192780,204.274948 342.405182,204.933136 342.617615,205.591324 
	C344.134979,203.484772 345.652344,201.378204 347.468994,199.138489 
	C347.497437,202.075302 347.226593,205.145279 346.694855,208.971466 
	C346.549530,212.799301 346.665131,215.870911 346.780762,218.942535 
	C346.832550,219.119339 346.884369,219.296158 346.923615,220.052307 
	C347.274292,221.737686 347.637512,222.843704 348.000732,223.949707 
	C348.000732,223.949722 348.054230,223.955704 348.038635,224.340210 
	C348.675903,225.798126 349.328766,226.871552 349.981628,227.944977 
	C349.981628,227.944962 350.059601,227.950455 350.135376,228.165970 
	C350.346863,228.605255 350.521698,228.792542 350.735657,228.943329 
	C350.792206,229.115555 350.848724,229.287766 350.778870,230.012390 
	C348.340210,231.366821 345.841644,231.841888 343.751190,233.033066 
	C337.834381,236.404526 331.691376,236.639496 325.234039,235.292969 
	C324.631592,235.167343 323.740479,236.425919 322.699585,236.845123 
	C321.434601,233.209534 320.727631,229.662125 319.418549,226.352890 
	C316.073334,217.896408 312.459778,209.546051 308.953552,201.153229 
z"/>
<path fill="#1E81DA" opacity="1.000000" stroke="none" 
	d="
M322.983398,237.041779 
	C323.740479,236.425919 324.631592,235.167343 325.234039,235.292969 
	C331.691376,236.639496 337.834381,236.404526 343.751190,233.033066 
	C345.841644,231.841888 348.340210,231.366821 350.836243,230.278183 
	C354.991119,234.497131 359.080902,238.904678 362.902588,243.533585 
	C367.461060,249.054794 366.757080,253.465683 360.711212,257.377869 
	C358.560944,258.769226 356.032745,259.576508 353.141724,260.541626 
	C352.062561,260.592987 351.518829,260.753204 350.975067,260.913452 
	C350.975067,260.913452 350.981171,260.979797 350.489899,260.945557 
	C343.674408,260.786499 336.840790,262.679810 331.777527,257.090179 
	C329.248169,254.297836 327.220184,251.051376 324.899353,247.636017 
	C324.216705,243.855072 323.600037,240.448425 322.983398,237.041779 
z"/>
<path fill="#0A23A3" opacity="1.000000" stroke="none" 
	d="
M325.999207,324.776306 
	C318.093353,324.701660 310.186432,324.680695 302.282379,324.517853 
	C300.065948,324.472198 297.858124,324.009369 295.094238,323.657959 
	C293.033264,322.833771 291.524384,322.089508 289.829559,321.027649 
	C283.490479,316.478943 277.337341,312.247833 270.998413,307.725098 
	C269.745453,305.981964 268.392914,304.661072 267.658569,303.057129 
	C263.699860,294.410522 259.894623,285.693665 255.977020,276.624329 
	C253.428314,269.764801 251.365021,263.067749 248.260086,256.894562 
	C246.826431,254.044220 243.357986,252.217300 240.812119,249.926346 
	C236.474411,245.532288 231.611130,242.017838 225.589325,240.323944 
	C239.371979,236.077682 252.413467,242.518646 257.015289,255.605621 
	C258.714050,260.436737 259.770294,265.491028 261.215576,270.415375 
	C261.762177,272.277710 262.579498,274.060577 263.255859,276.272705 
	C266.058136,283.820129 268.878052,290.974518 271.832581,298.447815 
	C278.560455,308.544586 287.631683,314.891541 299.177612,318.429443 
	C307.970337,320.227509 316.474915,321.807068 325.101501,323.564575 
	C325.482086,324.087097 325.740631,324.431702 325.999207,324.776306 
z"/>
<path fill="#0A18A9" opacity="1.000000" stroke="none" 
	d="
M251.997223,328.974274 
	C250.876129,332.284424 249.364182,335.523407 248.744492,338.924896 
	C248.131638,342.288879 247.858871,345.914917 248.441422,349.250610 
	C249.364136,354.534149 257.265533,359.493866 262.655396,359.185547 
	C265.913086,358.999207 269.206421,359.435913 272.442139,360.013428 
	C270.456482,360.873016 268.512421,361.311768 265.084045,362.085541 
	C269.476318,365.127533 272.700592,367.360596 275.924866,369.593689 
	C258.829437,372.796753 243.623688,367.656311 229.235672,358.975891 
	C228.582306,358.581726 228.142502,357.833588 227.386169,356.692871 
	C231.333878,343.323547 239.404327,334.081940 251.997223,328.974274 
z"/>
<path fill="#175FCA" opacity="1.000000" stroke="none" 
	d="
M315.086548,257.872620 
	C316.455078,259.740540 317.711548,261.704376 319.212799,263.458740 
	C324.033417,269.092072 329.961700,271.566681 337.675110,269.234253 
	C337.978760,268.990417 337.961670,269.031616 338.288300,268.982422 
	C339.414948,268.625427 340.214935,268.317596 341.404602,268.014099 
	C342.573608,268.023682 343.352966,268.028931 344.132294,268.034149 
	C344.911743,270.112732 346.118774,272.150421 346.322632,274.283997 
	C346.462250,275.744751 345.537994,277.648651 344.479492,278.787720 
	C343.390228,279.959869 341.560913,280.444336 339.723999,281.611542 
	C338.930389,281.997894 338.468262,282.002380 337.585632,282.005005 
	C332.458405,282.913055 327.775726,283.981384 323.040131,284.701752 
	C311.070953,286.522461 301.144684,281.774841 301.869995,267.670380 
	C302.033783,264.484802 300.670471,261.220673 300.412689,258.020264 
	C302.904053,258.450836 305.003967,259.226196 307.078827,259.164001 
	C309.758545,259.083740 312.418243,258.334045 315.086548,257.872620 
z"/>
<path fill="#07038E" opacity="1.000000" stroke="none" 
	d="
M252.294617,328.754639 
	C239.404327,334.081940 231.333878,343.323547 227.104980,356.487762 
	C224.131409,355.115875 221.221970,353.391632 218.477509,351.243774 
	C220.477753,347.297546 222.313019,343.774963 224.406250,340.031342 
	C227.160675,336.575531 229.657089,333.340790 232.433777,329.927094 
	C239.876938,323.133881 248.230957,319.021851 258.379395,317.783142 
	C260.911469,317.783264 262.997864,317.743469 265.294586,317.751404 
	C265.504944,317.799133 265.935120,317.766144 266.322693,317.806702 
	C267.488831,317.838654 268.267365,317.830078 269.274384,317.859009 
	C269.502869,317.896576 269.964966,317.865784 270.328796,318.056580 
	C277.133606,319.279999 283.574554,320.312622 290.015503,321.345245 
	C291.524384,322.089508 293.033264,322.833771 294.770813,323.797058 
	C293.543274,325.577606 292.087067,327.139069 290.347198,328.846130 
	C277.611450,325.690033 265.137878,324.147064 252.294617,328.754639 
z"/>
<path fill="#0E35B5" opacity="1.000000" stroke="none" 
	d="
M326.344360,324.829254 
	C325.740631,324.431702 325.482086,324.087097 324.900513,323.241760 
	C317.952362,319.775970 311.327209,316.810852 304.444336,313.592560 
	C296.391510,307.749268 288.233643,302.551849 283.077332,293.719177 
	C282.641693,293.305328 282.340332,293.132690 282.079468,292.955994 
	C282.119965,292.951904 282.114716,292.870667 282.155518,292.532471 
	C281.517944,290.823578 280.839630,289.452881 280.066376,287.717987 
	C278.975830,284.234985 277.980194,281.116180 277.357483,278.002991 
	C280.153076,279.010223 282.575775,280.011871 285.204620,281.210632 
	C285.937439,281.608734 286.464050,281.809723 287.313202,282.106720 
	C291.418793,285.473022 295.201874,288.743317 299.054626,292.371979 
	C300.500671,295.916199 302.075592,299.033325 303.207062,302.303894 
	C304.921112,307.258514 309.156891,308.936798 313.449677,309.827148 
	C321.827759,311.564697 330.340546,312.652802 338.797546,314.009857 
	C338.088928,319.440338 334.473724,322.197784 329.178467,324.058777 
	C328.425201,324.361176 328.233643,324.537262 328.076111,324.750336 
	C327.613922,324.794281 327.151733,324.838226 326.344360,324.829254 
z"/>
<path fill="#2952CA" opacity="1.000000" stroke="none" 
	d="
M186.988037,314.270325 
	C196.763870,307.266541 206.539703,300.262756 216.718323,293.474121 
	C221.077286,296.465973 225.033447,299.242676 228.991852,302.267090 
	C228.994110,302.514771 228.996948,303.010681 228.757309,303.236023 
	C222.985977,308.934845 217.454300,314.408295 211.566101,319.925476 
	C207.802429,321.670654 204.395279,323.372162 200.610840,325.064941 
	C199.477997,325.083466 198.722458,325.110718 197.802521,324.842133 
	C194.088104,321.120941 190.538071,317.695648 186.988037,314.270325 
z"/>
<path fill="#1B74D4" opacity="1.000000" stroke="none" 
	d="
M263.273438,275.879669 
	C262.579498,274.060577 261.762177,272.277710 261.215576,270.415375 
	C259.770294,265.491028 258.714050,260.436737 257.015289,255.605621 
	C252.413467,242.518646 239.371979,236.077682 225.361969,240.048950 
	C220.843597,241.119217 216.685211,241.920578 212.612213,243.034225 
	C206.497849,244.706039 201.115875,243.133636 197.895844,238.020477 
	C194.584518,232.762375 195.007767,226.757431 198.266754,221.229630 
	C198.841782,220.254303 199.516418,219.337723 200.477264,218.577515 
	C200.775345,219.206024 200.741211,219.651031 200.517273,220.424042 
	C199.850113,225.351898 198.662048,230.147476 203.821320,233.384720 
	C204.079193,233.697159 204.274750,233.837021 204.470306,233.976883 
	C204.362747,233.613297 204.255188,233.249710 204.133392,232.477936 
	C204.773529,229.376328 204.939316,226.426834 206.187759,224.044724 
	C208.519836,219.594971 212.019455,218.952637 217.272552,221.295959 
	C221.332458,223.106979 222.648438,226.328720 221.350739,230.927246 
	C220.929337,232.420563 220.817001,234.001129 220.466278,236.130951 
	C222.803055,235.662048 224.396240,235.353256 225.984726,235.021896 
	C241.879196,231.706238 257.074707,238.456955 260.250458,255.960220 
	C261.343719,261.985626 262.781097,267.948608 264.013031,274.204803 
	C263.734344,274.939575 263.503906,275.409607 263.273438,275.879669 
M215.336960,234.130783 
	C217.097061,232.118149 220.145691,230.711197 218.637192,227.156815 
	C217.207611,223.788406 214.433365,222.265457 211.111969,223.180313 
	C207.982391,224.042313 206.303589,226.707611 207.046997,230.108261 
	C207.950211,234.239899 210.704987,235.680725 215.336960,234.130783 
z"/>
<path fill="#1244BB" opacity="1.000000" stroke="none" 
	d="
M338.701111,313.605469 
	C330.340546,312.652802 321.827759,311.564697 313.449677,309.827148 
	C309.156891,308.936798 304.921112,307.258514 303.207062,302.303894 
	C302.075592,299.033325 300.500671,295.916199 299.493256,292.367523 
	C304.637207,292.518280 309.401276,293.276184 314.189697,293.490509 
	C322.187378,293.848480 330.448364,296.052917 337.902161,290.915344 
	C337.951935,290.957672 338.051727,291.042084 338.051697,291.042084 
	C338.236053,298.428436 338.420380,305.814758 338.701111,313.605469 
z"/>
<path fill="#5BBDED" opacity="1.000000" stroke="none" 
	d="
M279.904663,131.209076 
	C291.077698,132.856995 301.752258,135.963654 311.892273,142.245438 
	C312.526276,142.679291 312.726257,142.809250 312.952942,142.898148 
	C312.952942,142.898148 313.122650,142.911026 313.240417,143.154739 
	C313.537476,143.601501 313.739288,143.778992 313.963593,143.930908 
	C314.270721,144.111008 314.577820,144.291092 315.002594,145.054169 
	C315.305389,149.684540 316.700653,153.976425 312.354645,157.207733 
	C308.614349,156.857269 305.304352,156.494339 301.726379,155.894424 
	C293.956268,151.168015 286.454071,146.678619 279.093445,141.839691 
	C279.458191,138.063156 279.681427,134.636108 279.904663,131.209076 
z"/>
<path fill="#0D35A6" opacity="1.000000" stroke="none" 
	d="
M347.022583,196.093414 
	C343.902771,191.001556 340.652252,185.984390 337.691895,180.801453 
	C332.410126,171.554230 324.413483,167.225204 313.920654,167.105881 
	C310.599518,167.068115 307.275482,167.024551 303.959442,166.854126 
	C294.873627,166.387207 288.226166,161.677917 282.297546,155.096237 
	C279.429871,151.912659 275.343384,149.826935 271.145691,146.841797 
	C267.688293,146.254486 264.550873,145.155579 262.162567,146.052185 
	C254.307953,149.000931 246.724930,152.673096 238.687042,156.164124 
	C236.223129,156.847397 234.109726,157.433914 232.153839,157.718781 
	C237.087387,154.391953 241.757965,151.182556 246.659042,148.375656 
	C262.179535,139.486877 270.077118,139.224167 282.599792,149.674637 
	C283.618744,150.524994 284.653259,151.454071 285.841675,151.987610 
	C291.841858,154.681274 297.895416,157.255966 304.297546,160.063812 
	C305.956665,160.510971 307.237701,160.884766 308.542023,161.004303 
	C322.728760,162.304565 335.383057,166.069626 341.632111,180.759445 
	C342.196320,182.085724 343.910339,182.922897 345.090393,183.987213 
	C345.090393,183.987213 345.021942,183.983978 344.987152,184.203857 
	C345.344208,184.955124 345.736053,185.486496 346.127899,186.017853 
	C346.754730,189.071365 347.381561,192.124878 347.717957,195.599792 
	C347.427582,196.021179 347.022583,196.093414 347.022583,196.093414 
z"/>
<path fill="#2133C0" opacity="1.000000" stroke="none" 
	d="
M186.668411,314.333374 
	C190.538071,317.695648 194.088104,321.120941 197.606812,325.117981 
	C193.864197,327.277374 190.152939,328.865082 186.971695,330.226013 
	C192.600357,333.563660 198.483276,336.942444 204.215881,340.559448 
	C205.169052,341.160889 205.467346,342.800293 206.068268,343.960022 
	C197.171738,340.010315 187.936157,337.829987 178.152313,338.942810 
	C173.309280,339.493683 168.499527,340.337311 163.210587,341.116882 
	C163.034119,333.982697 167.152985,330.139008 171.363220,326.515137 
	C176.229904,322.326263 181.342804,318.423431 186.668411,314.333374 
z"/>
<path fill="#1E81DA" opacity="1.000000" stroke="none" 
	d="
M231.996338,158.020416 
	C234.109726,157.433914 236.223129,156.847397 238.835663,156.517410 
	C241.310165,161.921539 243.337524,167.050385 245.206696,172.236267 
	C245.497864,173.044144 245.067535,174.112061 244.970856,175.059738 
	C241.785934,176.136017 238.601013,177.212296 235.166107,178.537720 
	C229.545639,180.512665 224.175156,182.238449 218.106934,183.858551 
	C215.915848,183.134003 214.422485,182.515182 213.139069,181.624817 
	C216.856445,178.346283 217.370331,174.407196 216.738464,169.925385 
	C216.461853,169.435913 216.242706,169.205383 215.922028,168.805939 
	C215.864151,168.595520 215.798737,168.164017 215.713898,167.960052 
	C215.471985,167.502090 215.269379,167.292023 214.961548,167.129486 
	C214.901871,167.133102 214.800003,167.070480 214.836761,166.639496 
	C214.512222,162.070343 216.497482,160.847244 220.482986,160.866806 
	C223.353790,160.880920 226.230530,159.688782 229.212799,159.017822 
	C229.320969,159.000946 229.539536,159.014114 229.899506,158.996002 
	C230.848358,158.642838 231.437256,158.307755 232.030670,157.992798 
	C232.035217,158.012924 231.996338,158.020416 231.996338,158.020416 
z"/>
<path fill="#2062B7" opacity="1.000000" stroke="none" 
	d="
M180.902222,221.054092 
	C179.341034,219.576233 177.779831,218.098389 176.382172,216.269989 
	C177.418564,215.422806 178.291443,214.926132 179.821808,214.055374 
	C178.297348,213.502548 177.578003,213.241684 176.858643,212.980820 
	C178.467072,209.254059 183.112503,207.340790 182.867569,202.431870 
	C182.713226,199.338776 183.135895,196.216888 182.207245,193.529892 
	C181.170151,190.851318 179.324020,188.155548 179.380539,185.500244 
	C179.418167,183.731812 182.174088,180.595200 183.705902,180.599747 
	C186.385742,180.607697 190.699722,181.978989 191.357773,183.833405 
	C192.383759,186.724609 194.058197,187.082520 196.134995,187.607147 
	C202.122070,189.119614 208.135574,190.527557 214.551651,192.351120 
	C214.703232,194.163132 214.441864,195.600571 214.093597,196.659790 
	C212.832428,195.535416 211.750031,194.458237 210.467468,194.102295 
	C205.740082,192.790375 200.936600,191.755875 196.180252,190.544388 
	C190.455154,189.086151 186.207153,192.151505 185.909302,197.884476 
	C185.807526,199.842926 185.025391,201.786316 185.065887,203.725906 
	C185.103546,205.529556 185.268646,208.060776 186.398483,208.904312 
	C187.509628,209.733856 190.098114,209.304688 191.701385,208.628693 
	C198.189926,205.892883 204.548569,202.848923 211.136490,200.084351 
	C212.219727,200.508087 213.121628,200.766174 214.023529,201.024261 
	C205.592163,205.202667 197.160782,209.381088 188.777557,213.535645 
	C187.948074,215.383408 187.048172,217.388046 185.823578,219.818130 
	C185.317474,220.379730 185.170776,220.546448 185.058823,220.743729 
	C184.886688,220.800812 184.714539,220.857880 183.889725,220.968781 
	C182.458786,221.033112 181.680496,221.043594 180.902222,221.054092 
z"/>
<path fill="#88C8EF" opacity="1.000000" stroke="none" 
	d="
M279.448486,131.143738 
	C279.681427,134.636108 279.458191,138.063156 278.756714,141.708923 
	C266.655823,134.153824 256.396820,139.237228 246.207245,145.280289 
	C244.399323,146.352509 242.431610,147.155258 240.097748,148.068863 
	C234.323441,147.241257 232.418884,144.426575 232.990860,138.202393 
	C242.337265,135.818649 251.592178,132.917648 261.063904,131.242599 
	C266.868195,130.216110 273.004883,131.069305 279.448486,131.143738 
z"/>
<path fill="#5284D2" opacity="1.000000" stroke="none" 
	d="
M240.537689,148.082443 
	C242.431610,147.155258 244.399323,146.352509 246.207245,145.280289 
	C256.396820,139.237228 266.655823,134.153824 278.615173,142.058426 
	C286.454071,146.678619 293.956268,151.168015 301.820251,156.183350 
	C302.764801,157.763626 303.347534,158.818008 303.930267,159.872375 
	C297.895416,157.255966 291.841858,154.681274 285.841675,151.987610 
	C284.653259,151.454071 283.618744,150.524994 282.599792,149.674637 
	C270.077118,139.224167 262.179535,139.486877 246.659042,148.375656 
	C241.757965,151.182556 237.087387,154.391953 232.153839,157.718781 
	C231.996338,158.020416 232.035217,158.012924 231.683868,158.015335 
	C230.734848,158.349869 230.137192,158.681992 229.539536,159.014099 
	C229.539536,159.014114 229.320969,159.000946 228.774414,159.003235 
	C219.677841,160.827942 211.204880,160.323685 202.786774,158.163147 
	C203.931396,156.875305 205.076035,155.587463 206.830750,154.438492 
	C217.304703,158.892899 232.773254,155.857361 240.537689,148.082443 
z"/>
<path fill="#0927BB" opacity="1.000000" stroke="none" 
	d="
M206.228073,344.261414 
	C205.467346,342.800293 205.169052,341.160889 204.215881,340.559448 
	C198.483276,336.942444 192.600357,333.563660 186.971695,330.226013 
	C190.152939,328.865082 193.864197,327.277374 197.771179,325.413818 
	C198.722458,325.110718 199.477997,325.083466 200.692352,325.393799 
	C202.341049,326.782196 203.404556,328.042969 204.742310,328.848114 
	C211.170349,332.717041 217.672455,336.462860 224.148270,340.252380 
	C222.313019,343.774963 220.477753,347.297546 218.323547,350.946869 
	C214.132355,348.903351 210.260117,346.733093 206.228073,344.261414 
z"/>
<path fill="#4AB2FC" opacity="1.000000" stroke="none" 
	d="
M200.707092,220.096024 
	C200.741211,219.651031 200.775345,219.206024 200.781830,218.430511 
	C206.144623,212.723587 213.247589,212.062073 220.929077,211.207214 
	C228.663437,213.010452 235.685028,214.637466 242.852509,216.570969 
	C255.051788,223.958115 262.887115,234.624390 268.744141,247.431900 
	C271.554138,257.873047 274.269379,267.935242 276.984619,277.997406 
	C277.980194,281.116180 278.975830,284.234985 279.799744,287.794922 
	C278.738312,286.970154 277.494324,285.823334 277.021515,284.417236 
	C275.199982,278.999603 273.625031,273.499054 271.944763,267.636322 
	C268.565063,253.784027 263.804749,241.360306 254.185501,230.541473 
	C242.071686,216.916946 218.538849,209.928162 200.707092,220.096024 
z"/>
<path fill="#1E81DA" opacity="1.000000" stroke="none" 
	d="
M242.706619,216.264481 
	C235.685028,214.637466 228.663437,213.010452 221.346405,211.111542 
	C229.041428,205.807556 234.726257,199.017303 237.200775,189.333984 
	C237.879913,188.931412 238.502121,188.930481 239.779114,189.030136 
	C242.960236,191.425659 245.486572,193.720596 247.858704,196.330994 
	C246.169205,200.794952 244.633911,204.943481 243.083481,209.531555 
	C242.947769,212.068893 242.827194,214.166687 242.706619,216.264481 
z"/>
<path fill="#96CBF0" opacity="1.000000" stroke="none" 
	d="
M240.097748,148.068863 
	C232.773254,155.857361 217.304703,158.892899 207.132401,154.331360 
	C212.604279,147.331940 220.429550,143.695541 228.796234,139.910995 
	C229.587509,139.639435 229.790070,139.457123 229.960678,139.239288 
	C230.748169,138.849289 231.535660,138.459305 232.657013,138.135864 
	C232.418884,144.426575 234.323441,147.241257 240.097748,148.068863 
z"/>
<path fill="#1450C1" opacity="1.000000" stroke="none" 
	d="
M344.422211,267.852844 
	C343.352966,268.028931 342.573608,268.023682 341.073547,268.044708 
	C339.555786,268.391174 338.758728,268.711395 337.961670,269.031616 
	C337.961670,269.031616 337.978760,268.990417 338.000977,268.986938 
	C326.316833,268.865448 321.511322,264.786560 316.633820,250.167297 
	C319.571289,249.143753 322.268341,248.577042 324.965393,248.010315 
	C327.220184,251.051376 329.248169,254.297836 331.777527,257.090179 
	C336.840790,262.679810 343.674408,260.786499 350.458038,260.935791 
	C348.848999,263.197418 346.780579,265.434479 344.422211,267.852844 
z"/>
<path fill="#0A23A3" opacity="1.000000" stroke="none" 
	d="
M276.309265,369.648926 
	C272.700592,367.360596 269.476318,365.127533 265.084045,362.085541 
	C268.512421,361.311768 270.456482,360.873016 272.702087,360.218750 
	C279.559845,357.592255 285.280670,354.297974 287.008514,346.389221 
	C289.964264,350.967010 292.907959,355.924652 296.098145,361.297485 
	C290.672577,365.319305 284.019562,368.237122 276.309265,369.648926 
z"/>
<path fill="#2E6AD0" opacity="1.000000" stroke="none" 
	d="
M228.989594,302.019409 
	C225.033447,299.242676 221.077286,296.465973 217.040161,293.352173 
	C223.920227,286.925720 230.993164,280.956757 237.763763,274.662598 
	C239.463577,273.082428 240.193146,270.458588 241.681091,268.545441 
	C242.009674,269.867737 242.025757,270.958984 242.007385,272.440643 
	C239.333435,279.893494 236.693924,286.955933 233.893387,294.321472 
	C232.151428,297.089539 230.570511,299.554474 228.989594,302.019409 
z"/>
<path fill="#1B74D4" opacity="1.000000" stroke="none" 
	d="
M202.512817,158.320129 
	C211.204880,160.323685 219.677841,160.827942 228.666229,159.020111 
	C226.230530,159.688782 223.353790,160.880920 220.482986,160.866806 
	C216.497482,160.847244 214.512222,162.070343 214.549500,166.449463 
	C211.040100,163.852798 207.338745,162.763702 203.773193,165.353531 
	C200.072647,168.041412 199.031906,172.416641 200.320068,176.570084 
	C201.570923,180.603210 205.251297,182.095581 209.439926,181.988937 
	C210.603012,181.959305 211.766052,181.927292 212.929108,181.896362 
	C214.422485,182.515182 215.915848,183.134003 217.731400,183.902008 
	C212.611343,186.490723 206.978775,186.732864 201.415894,184.844894 
	C196.099792,183.040649 193.452499,176.895096 195.727158,170.937790 
	C197.387482,166.589417 200.032700,162.617081 202.512817,158.320129 
z"/>
<path fill="#1E81DA" opacity="1.000000" stroke="none" 
	d="
M214.180481,197.038025 
	C214.441864,195.600571 214.703232,194.163132 214.953430,192.346954 
	C214.942230,191.968246 214.974365,191.972061 215.179688,191.855682 
	C215.642776,191.551819 215.830002,191.309738 215.946655,191.013046 
	C215.946655,191.013046 215.952347,190.945267 216.190582,190.846039 
	C216.682510,190.557358 216.851395,190.309998 216.935516,190.004761 
	C220.206253,186.734268 223.742569,187.165497 227.032562,189.708099 
	C230.450226,192.349335 231.034882,196.736511 228.725677,200.330353 
	C226.354630,204.020416 222.928238,204.148224 219.212265,202.813370 
	C217.709610,202.273575 216.263123,201.577393 214.407303,200.988312 
	C213.121628,200.766174 212.219727,200.508087 211.316467,199.780762 
	C212.270248,198.553696 213.225357,197.795868 214.180481,197.038025 
z"/>
<path fill="#2E6AD0" opacity="1.000000" stroke="none" 
	d="
M304.297546,160.063812 
	C303.347534,158.818008 302.764801,157.763626 302.088196,156.420349 
	C305.304352,156.494339 308.614349,156.857269 312.686157,157.409515 
	C319.578949,159.586243 325.699432,161.607712 331.855988,163.512390 
	C332.528198,163.720352 333.408478,163.255722 334.192261,163.103027 
	C337.790649,169.804001 341.389008,176.504959 345.038879,183.596558 
	C343.910339,182.922897 342.196320,182.085724 341.632111,180.759445 
	C335.383057,166.069626 322.728760,162.304565 308.542023,161.004303 
	C307.237701,160.884766 305.956665,160.510971 304.297546,160.063812 
z"/>
<path fill="#196BCF" opacity="1.000000" stroke="none" 
	d="
M242.041840,272.050232 
	C242.025757,270.958984 242.009674,269.867737 241.982300,268.367401 
	C241.971039,267.958313 241.993607,267.995697 242.213623,267.939941 
	C242.611603,267.217194 242.789566,266.550201 242.967529,265.883179 
	C244.469986,260.545380 243.944305,255.458054 240.949768,250.292480 
	C243.357986,252.217300 246.826431,254.044220 248.260086,256.894562 
	C251.365021,263.067749 253.428314,269.764801 255.593384,276.604248 
	C250.860046,275.323975 246.450958,273.687103 242.041840,272.050232 
z"/>
<path fill="#194BAC" opacity="1.000000" stroke="none" 
	d="
M180.905991,221.468918 
	C181.680496,221.043594 182.458786,221.033112 183.625397,221.033096 
	C183.310059,225.756668 182.606384,230.469757 181.666092,235.896866 
	C181.654449,238.060959 181.879425,239.511032 182.104385,240.961105 
	C182.420624,241.044464 182.671158,241.221039 183.066223,241.921783 
	C183.476105,242.622208 183.725494,242.832672 184.024643,242.984161 
	C184.334808,243.453094 184.644974,243.922028 184.801147,244.948822 
	C184.774506,247.346802 184.901871,249.186920 184.874756,251.265381 
	C184.194839,251.699768 183.669388,251.895844 182.828064,252.210266 
	C180.673386,252.540054 178.834595,252.751495 176.995804,252.962936 
	C176.648712,252.990891 176.368073,252.867599 175.921906,252.023804 
	C175.105362,249.257202 174.520782,247.059875 173.936203,244.862534 
	C180.522980,240.123795 179.850861,233.038910 180.043594,226.196030 
	C180.084290,224.751617 180.608398,223.320816 180.905991,221.468918 
z"/>
<path fill="#4AB2FC" opacity="1.000000" stroke="none" 
	d="
M334.010437,162.790497 
	C333.408478,163.255722 332.528198,163.720352 331.855988,163.512390 
	C325.699432,161.607712 319.578949,159.586243 313.116455,157.397049 
	C316.700653,153.976425 315.305389,149.684540 315.085022,145.316147 
	C321.309387,150.822754 327.569031,156.650360 334.010437,162.790497 
z"/>
<path fill="#194BAC" opacity="1.000000" stroke="none" 
	d="
M234.683990,261.949188 
	C232.835892,269.372589 228.354614,272.157227 221.083389,269.714722 
	C219.260742,268.581329 218.094482,267.725861 216.952209,266.484467 
	C215.974304,263.668579 214.972427,261.238586 213.968231,258.526855 
	C213.952209,257.871094 213.938507,257.497131 214.224823,257.074524 
	C214.724762,256.993225 214.924713,256.960510 215.124664,256.927795 
	C215.900757,256.377441 216.676849,255.827087 217.840729,255.449677 
	C217.455521,259.715363 219.160049,261.267365 223.284332,261.187408 
	C227.077881,261.113892 230.883621,261.670319 234.683990,261.949188 
z"/>
<path fill="#091799" opacity="1.000000" stroke="none" 
	d="
M200.649078,284.472046 
	C199.735367,286.304138 198.212906,288.081940 198.043732,289.980408 
	C197.755264,293.217438 197.173431,296.294159 193.664856,296.656464 
	C191.382797,296.892120 188.340393,296.062103 186.674957,294.560333 
	C183.872055,292.032806 185.002274,288.912018 188.038315,286.113281 
	C189.496506,285.583588 190.323120,285.283478 191.502625,285.003540 
	C194.231094,284.451141 196.606659,283.878540 199.394531,283.603760 
	C200.087601,284.091705 200.368332,284.281891 200.649078,284.472046 
z"/>
<path fill="#1450C1" opacity="1.000000" stroke="none" 
	d="
M234.753632,261.582001 
	C230.883621,261.670319 227.077881,261.113892 223.284332,261.187408 
	C219.160049,261.267365 217.455521,259.715363 218.126434,255.306824 
	C221.109543,250.918442 225.343369,251.908112 229.813202,252.990524 
	C230.772964,254.058472 231.382767,254.531403 231.992554,255.004333 
	C232.263580,255.212677 232.534592,255.421005 232.982849,256.044128 
	C233.297607,256.679993 233.477905,256.857635 233.700989,256.991913 
	C233.760849,257.162628 233.820724,257.333374 234.009903,257.954041 
	C234.266663,258.641846 234.442566,258.835815 234.666931,258.985870 
	C234.719040,259.728851 234.771149,260.471832 234.753632,261.582001 
z"/>
<path fill="#2062B7" opacity="1.000000" stroke="none" 
	d="
M164.416046,194.429016 
	C167.391800,190.902008 171.093521,191.189209 173.230453,193.759384 
	C174.647888,195.464203 174.754227,199.725067 173.552109,201.670639 
	C172.617416,203.183411 168.226364,204.026657 166.314743,203.138107 
	C163.173370,201.677933 161.996002,198.297134 164.416046,194.429016 
z"/>
<path fill="#1E3F93" opacity="1.000000" stroke="none" 
	d="
M191.149719,284.983368 
	C190.323120,285.283478 189.496506,285.583588 188.344940,285.940887 
	C185.810440,277.172150 183.751251,268.303833 181.285645,259.550049 
	C180.669189,257.361420 178.744293,255.541306 177.208282,253.257385 
	C178.834595,252.751495 180.673386,252.540054 182.786285,252.609070 
	C183.397064,254.661285 183.634262,256.458923 184.087143,258.200470 
	C186.410812,267.136017 188.789948,276.057190 191.149719,284.983368 
z"/>
<path fill="#194BAC" opacity="1.000000" stroke="none" 
	d="
M176.493118,213.168198 
	C177.578003,213.241684 178.297348,213.502548 179.821808,214.055374 
	C178.291443,214.926132 177.418564,215.422806 176.235184,215.964844 
	C170.572632,216.969482 165.244110,218.138718 159.852295,218.743362 
	C158.469254,218.898468 156.485870,217.576889 155.548950,216.346741 
	C155.006348,215.634338 155.569199,213.236206 156.414612,212.528381 
	C157.424973,211.682465 159.936417,211.061264 160.643845,211.674271 
	C165.520447,215.899994 170.881912,213.778046 176.493118,213.168198 
z"/>
<path fill="#1E3F93" opacity="1.000000" stroke="none" 
	d="
M173.576508,245.066376 
	C174.520782,247.059875 175.105362,249.257202 175.817719,251.809708 
	C171.398834,248.010498 166.559006,247.985794 161.137985,250.544220 
	C159.852539,251.150879 157.210190,250.345886 156.065140,249.265137 
	C155.318604,248.560532 155.643600,245.129776 156.377518,244.778732 
	C157.906296,244.047501 160.028992,244.470078 161.900589,244.561996 
	C165.675156,244.747345 169.445007,245.028549 173.576508,245.066376 
z"/>
<path fill="#1E3F93" opacity="1.000000" stroke="none" 
	d="
M214.884369,256.636841 
	C214.924713,256.960510 214.724762,256.993225 213.942657,257.110046 
	C212.883881,257.492249 212.407272,257.790344 211.531387,258.064270 
	C209.366653,257.657349 207.578201,257.357758 205.839767,256.877289 
	C198.894470,254.957764 191.964722,252.982010 185.029221,251.027054 
	C184.901871,249.186920 184.774506,247.346802 184.855408,245.238022 
	C186.735977,246.294998 188.211914,248.208832 190.114731,248.844086 
	C198.222351,251.550827 206.456253,253.879318 214.884369,256.636841 
z"/>
<path fill="#091799" opacity="1.000000" stroke="none" 
	d="
M175.109070,273.917114 
	C174.675476,276.363556 174.559998,279.104309 173.132736,280.399292 
	C172.238068,281.211029 168.635162,280.481842 167.601761,279.279755 
	C166.620575,278.138336 166.623917,274.920135 167.570435,273.607330 
	C169.562225,270.844818 172.415283,271.470642 175.109070,273.917114 
z"/>
<path fill="#1E3F93" opacity="1.000000" stroke="none" 
	d="
M138.995239,228.764709 
	C141.157150,229.061188 144.246506,229.151184 144.639221,230.226257 
	C145.316772,232.081070 144.874603,234.905914 143.783081,236.604568 
	C143.253128,237.429291 139.647293,237.356262 138.383667,236.414841 
	C135.396149,234.189194 136.109741,231.380310 138.995239,228.764709 
z"/>
<path fill="#2062B7" opacity="1.000000" stroke="none" 
	d="
M174.192963,168.054718 
	C174.532455,165.586624 174.365250,162.987823 175.580078,161.590973 
	C176.345657,160.710648 179.531235,161.048950 180.974243,161.924026 
	C182.129486,162.624603 182.933029,165.024597 182.773102,166.553223 
	C182.378571,170.324493 178.576263,171.063812 174.192963,168.054718 
z"/>
<path fill="#1E3F93" opacity="1.000000" stroke="none" 
	d="
M216.928223,266.870361 
	C218.094482,267.725861 219.260742,268.581329 220.704041,269.623962 
	C215.374405,269.846008 212.934097,274.875305 208.997528,277.523010 
	C206.325989,279.319885 204.088242,281.761719 201.024292,283.800201 
	C199.953552,283.553284 199.514999,283.421265 199.226837,282.906006 
	C205.227570,277.305267 211.077896,272.087830 216.928223,266.870361 
z"/>
<path fill="#091799" opacity="1.000000" stroke="none" 
	d="
M144.562988,266.419983 
	C145.359406,265.091095 146.175171,263.901855 147.299149,263.222809 
	C147.597549,263.042480 149.285477,264.301147 149.525894,265.133057 
	C149.756058,265.929535 148.884583,267.869507 148.582962,267.851776 
	C147.270828,267.774506 145.989975,267.166107 144.562988,266.419983 
z"/>
<path fill="#194BAC" opacity="1.000000" stroke="none" 
	d="
M159.060577,182.282425 
	C157.577560,181.878967 156.118515,181.437668 155.261795,180.465546 
	C154.918716,180.076248 155.690140,177.851044 156.330658,177.647842 
	C157.302567,177.339478 159.178360,177.720505 159.612778,178.443787 
	C160.115326,179.280502 159.472076,180.805420 159.060577,182.282425 
z"/>
<path fill="#1244BB" opacity="1.000000" stroke="none" 
	d="
M338.006104,282.006897 
	C338.468262,282.002380 338.930389,281.997894 339.739349,281.992432 
	C344.384033,285.679749 341.061462,288.121216 338.355408,290.877655 
	C338.051727,291.042084 337.951935,290.957672 337.952271,290.596527 
	C337.970428,287.492554 337.988281,284.749756 338.006104,282.006897 
z"/>
<path fill="#1E3F93" opacity="1.000000" stroke="none" 
	d="
M146.427307,201.104156 
	C148.904602,202.642227 149.028305,204.459106 146.903763,205.704712 
	C146.130859,206.157852 143.674301,205.409149 143.348236,204.634979 
	C142.445053,202.490601 143.138138,200.731140 146.427307,201.104156 
z"/>
<path fill="#0A23A3" opacity="1.000000" stroke="none" 
	d="
M286.979004,345.521149 
	C286.831238,342.546783 286.662994,339.116852 286.702026,335.354858 
	C286.925690,338.370361 286.942108,341.717987 286.979004,345.521149 
z"/>
<path fill="#1E81DA" opacity="1.000000" stroke="none" 
	d="
M346.859985,218.500702 
	C346.665131,215.870911 346.549530,212.799301 346.624054,209.390961 
	C346.855865,212.055786 346.897583,215.057343 346.859985,218.500702 
z"/>
<path fill="#1E81DA" opacity="1.000000" stroke="none" 
	d="
M349.961975,227.614105 
	C349.328766,226.871552 348.675903,225.798126 348.035645,224.366959 
	C348.679596,225.100571 349.310974,226.191910 349.961975,227.614105 
z"/>
<path fill="#1E81DA" opacity="1.000000" stroke="none" 
	d="
M347.991486,223.587021 
	C347.637512,222.843704 347.274292,221.737686 346.979645,220.322937 
	C347.359558,221.084259 347.670868,222.154297 347.991486,223.587021 
z"/>
<path fill="#1E3F93" opacity="1.000000" stroke="none" 
	d="
M182.068283,240.550415 
	C181.879425,239.511032 181.654449,238.060959 181.602509,236.322357 
	C181.861099,237.402451 181.946640,238.771088 182.068283,240.550415 
z"/>
<path fill="#2E6AD0" opacity="1.000000" stroke="none" 
	d="
M242.688400,266.029327 
	C242.789566,266.550201 242.611603,267.217194 242.194916,267.929749 
	C242.107208,267.375336 242.258240,266.775391 242.688400,266.029327 
z"/>
<path fill="#194BAC" opacity="1.000000" stroke="none" 
	d="
M231.904053,254.722382 
	C231.382767,254.531403 230.772964,254.058472 230.085724,253.290100 
	C230.610687,253.476593 231.213120,253.958511 231.904053,254.722382 
z"/>
<path fill="#2E6AD0" opacity="1.000000" stroke="none" 
	d="
M346.047424,185.712982 
	C345.736053,185.486496 345.344208,184.955124 344.993927,184.170288 
	C345.345978,184.413910 345.656494,184.911011 346.047424,185.712982 
z"/>
<path fill="#1450C1" opacity="1.000000" stroke="none" 
	d="
M351.310059,260.924255 
	C351.518829,260.753204 352.062561,260.592987 352.785248,260.587708 
	C352.524445,260.806763 352.084747,260.870911 351.310059,260.924255 
z"/>
<path fill="#1E3F93" opacity="1.000000" stroke="none" 
	d="
M183.936340,242.745758 
	C183.725494,242.832672 183.476105,242.622208 183.157059,242.137268 
	C183.307785,242.116974 183.577927,242.312164 183.936340,242.745758 
z"/>
<path fill="#194BAC" opacity="1.000000" stroke="none" 
	d="
M234.687653,258.762451 
	C234.442566,258.835815 234.266663,258.641846 234.071869,258.218262 
	C234.328064,258.077820 234.562683,258.246613 234.687653,258.762451 
z"/>
<path fill="#194BAC" opacity="1.000000" stroke="none" 
	d="
M233.714157,256.771240 
	C233.477905,256.857635 233.297607,256.679993 233.085754,256.283966 
	C233.342865,256.105713 233.581497,256.252899 233.714157,256.771240 
z"/>
<path fill="#1E81DA" opacity="1.000000" stroke="none" 
	d="
M350.774475,228.715515 
	C350.521698,228.792542 350.346863,228.605255 350.134521,228.205048 
	C350.402527,228.029068 350.654297,228.182098 350.774475,228.715515 
z"/>
<path fill="#0A23A3" opacity="1.000000" stroke="none" 
	d="
M328.294800,324.752747 
	C328.233643,324.537262 328.425201,324.361176 328.829285,324.142944 
	C328.954468,324.373932 328.789673,324.604401 328.294800,324.752747 
z"/>
<path fill="#4AB2FC" opacity="1.000000" stroke="none" 
	d="
M312.925415,142.674789 
	C312.726257,142.809250 312.526276,142.679291 312.243469,142.366196 
	C312.467438,142.035400 312.722046,142.111176 312.925415,142.674789 
z"/>
<path fill="#88C8EF" opacity="1.000000" stroke="none" 
	d="
M229.718903,139.197540 
	C229.790070,139.457123 229.587509,139.639435 229.168182,139.874176 
	C228.999176,139.602249 229.163773,139.333466 229.718903,139.197540 
z"/>
<path fill="#194BAC" opacity="1.000000" stroke="none" 
	d="
M185.265930,220.755554 
	C185.170776,220.546448 185.317474,220.379730 185.640839,220.155609 
	C185.873840,220.386932 185.770584,220.620178 185.265930,220.755554 
z"/>
<path fill="#2062B7" opacity="1.000000" stroke="none" 
	d="
M216.706619,190.074203 
	C216.851395,190.309998 216.682510,190.557358 216.224564,190.847473 
	C216.030991,190.599335 216.183456,190.331161 216.706619,190.074203 
z"/>
<path fill="#2062B7" opacity="1.000000" stroke="none" 
	d="
M215.703201,191.064636 
	C215.830002,191.309738 215.642776,191.551819 215.177048,191.841675 
	C214.986252,191.581314 215.149811,191.305389 215.703201,191.064636 
z"/>
<path fill="#1F8EE2" opacity="1.000000" stroke="none" 
	d="
M347.120911,196.259476 
	C347.022583,196.093414 347.427582,196.021179 347.632874,196.009155 
	C347.838165,195.997147 347.891449,196.494141 347.825500,196.735077 
	C347.549713,196.821655 347.369629,196.638168 347.120911,196.259476 
z"/>
<path fill="#091799" opacity="1.000000" stroke="none" 
	d="
M199.076447,283.289246 
	C199.514999,283.421265 199.953552,283.553284 200.682648,283.870178 
	C200.973206,284.055084 200.864426,284.307709 200.756744,284.389893 
	C200.368332,284.281891 200.087601,284.091705 199.431656,283.617432 
	C199.056458,283.333344 199.076447,283.289246 199.076447,283.289246 
z"/>
<path fill="#4AB2FC" opacity="1.000000" stroke="none" 
	d="
M313.915009,143.711334 
	C313.739288,143.778992 313.537476,143.601501 313.237701,143.239777 
	C313.452698,143.061584 313.702423,143.198471 313.915009,143.711334 
z"/>
<path fill="#1F8EE2" opacity="1.000000" stroke="none" 
	d="
M245.381165,175.059021 
	C245.067535,174.112061 245.497864,173.044144 245.206696,172.236267 
	C243.337524,167.050385 241.310165,161.921539 239.186188,156.420654 
	C246.724930,152.673096 254.307953,149.000931 262.162567,146.052185 
	C264.550873,145.155579 267.688293,146.254486 270.842773,146.670502 
	C268.766266,147.031586 266.329620,147.161591 262.531433,147.364227 
	C265.472412,156.531555 268.171082,164.943542 270.932434,173.729477 
	C266.102448,173.835281 261.209747,173.567123 255.565979,173.232178 
	C254.224487,173.387878 253.634033,173.610367 253.043579,173.832855 
	C250.626205,174.241333 248.208847,174.649811 245.381165,175.059021 
z"/>
<path fill="#165BC4" opacity="1.000000" stroke="none" 
	d="
M324.899353,247.636017 
	C322.268341,248.577042 319.571289,249.143753 316.545074,249.824219 
	C313.333069,239.425369 311.058960,228.695953 307.412018,218.455444 
	C302.934784,205.883438 298.416168,193.112381 288.285278,183.144775 
	C293.273621,186.777527 298.455994,190.613388 303.378693,194.757706 
	C305.342865,196.411285 306.733582,198.745987 308.669434,200.961929 
	C312.459778,209.546051 316.073334,217.896408 319.418549,226.352890 
	C320.727631,229.662125 321.434601,233.209534 322.699585,236.845123 
	C323.600037,240.448425 324.216705,243.855072 324.899353,247.636017 
z"/>
<path fill="#1F8EE2" opacity="1.000000" stroke="none" 
	d="
M273.736298,174.792694 
	C273.348022,174.866776 272.700104,174.732498 271.793152,174.377121 
	C272.181641,174.298813 272.829163,174.441589 273.736298,174.792694 
z"/>
<path fill="#1F8EE2" opacity="1.000000" stroke="none" 
	d="
M275.752319,175.653015 
	C275.618927,175.714813 275.289398,175.613953 274.782593,175.315063 
	C274.922302,175.241470 275.239258,175.365906 275.752319,175.653015 
z"/>
<path fill="#1B74D4" opacity="1.000000" stroke="none" 
	d="
M243.098633,209.092010 
	C244.633911,204.943481 246.169205,200.794952 248.172180,196.168762 
	C252.354416,194.457138 256.010803,192.409546 259.794189,192.139160 
	C271.994507,191.267258 280.130188,198.874756 287.878143,206.843597 
	C291.713989,210.788788 295.376831,214.902222 299.117920,218.939545 
	C299.117920,218.939545 299.074341,218.988922 299.115601,219.293701 
	C299.492798,220.189117 299.828766,220.779770 300.164734,221.370422 
	C301.368195,224.624527 302.571655,227.878632 303.818542,231.790710 
	C302.583160,232.872391 301.067871,233.964615 300.064362,233.609726 
	C294.174591,231.526779 288.439941,229.009277 282.576477,226.845688 
	C280.166565,225.956451 277.565857,225.584213 274.966431,224.602432 
	C274.247070,221.812454 273.689911,219.373627 272.966248,216.985245 
	C269.750580,206.372757 262.800232,200.428146 254.194336,202.323486 
	C250.192963,203.204742 246.778915,206.752823 243.098633,209.092010 
z"/>
<path fill="#196BCF" opacity="1.000000" stroke="none" 
	d="
M275.051941,224.976807 
	C277.565857,225.584213 280.166565,225.956451 282.576477,226.845688 
	C288.439941,229.009277 294.174591,231.526779 300.064362,233.609726 
	C301.067871,233.964615 302.583160,232.872391 304.005066,232.097168 
	C307.684296,240.249268 311.220428,248.752914 314.921570,257.564575 
	C312.418243,258.334045 309.758545,259.083740 307.078827,259.164001 
	C305.003967,259.226196 302.904053,258.450836 300.271729,257.829163 
	C299.520599,257.368073 299.282104,257.161224 298.939514,256.651947 
	C297.026764,254.520966 295.496979,252.034271 293.295746,251.051636 
	C281.896729,245.963013 276.035004,237.235092 275.051941,224.976807 
z"/>
<path fill="#1F8EE2" opacity="1.000000" stroke="none" 
	d="
M299.109528,218.556213 
	C295.376831,214.902222 291.713989,210.788788 287.878143,206.843597 
	C280.130188,198.874756 271.994507,191.267258 259.794189,192.139160 
	C256.010803,192.409546 252.354416,194.457138 248.326401,195.853302 
	C245.486572,193.720596 242.960236,191.425659 240.091736,189.023743 
	C255.367966,178.605698 273.706116,179.409760 284.426422,191.259918 
	C291.424774,198.995895 296.048462,208.198242 299.109528,218.556213 
z"/>
<path fill="#1E81DA" opacity="1.000000" stroke="none" 
	d="
M253.365402,173.855835 
	C253.634033,173.610367 254.224487,173.387878 255.143738,173.173645 
	C254.877441,173.414200 254.282333,173.646500 253.365402,173.855835 
z"/>
<path fill="#1F8EE2" opacity="1.000000" stroke="none" 
	d="
M300.154419,221.007904 
	C299.828766,220.779770 299.492798,220.189117 299.097046,219.266510 
	C299.406189,219.504822 299.775146,220.075104 300.154419,221.007904 
z"/>
<path fill="#145CD2" opacity="1.000000" stroke="none" 
	d="
M242.007401,272.440643 
	C246.450958,273.687103 250.860046,275.323975 255.652771,276.980957 
	C259.894623,285.693665 263.699860,294.410522 267.658569,303.057129 
	C268.392914,304.661072 269.745453,305.981964 270.562683,307.721680 
	C268.676880,307.830109 266.875305,308.032837 265.432404,307.407715 
	C256.946014,303.730927 248.558746,299.826080 240.100555,296.082855 
	C238.160599,295.224274 236.073700,294.697723 234.054428,294.018372 
	C236.693924,286.955933 239.333435,279.893494 242.007401,272.440643 
z"/>
<path fill="#1252CE" opacity="1.000000" stroke="none" 
	d="
M233.893387,294.321472 
	C236.073700,294.697723 238.160599,295.224274 240.100555,296.082855 
	C248.558746,299.826080 256.946014,303.730927 265.432404,307.407715 
	C266.875305,308.032837 268.676880,307.830109 270.748474,308.013275 
	C277.337341,312.247833 283.490479,316.478943 289.829559,321.027649 
	C283.574554,320.312622 277.133606,319.279999 270.228882,317.970703 
	C269.502167,317.576813 269.262421,317.619263 269.045898,317.821472 
	C268.267365,317.830078 267.488831,317.838654 266.229431,317.734528 
	C265.514557,317.521027 265.293121,317.548309 265.084229,317.703644 
	C262.997864,317.743469 260.911469,317.783264 258.169556,317.530670 
	C248.008347,312.495728 238.502640,307.753204 228.996948,303.010681 
	C228.996948,303.010681 228.994110,302.514771 228.991852,302.267090 
	C230.570511,299.554474 232.151428,297.089539 233.893387,294.321472 
z"/>
<path fill="#1683F6" opacity="1.000000" stroke="none" 
	d="
M283.211548,293.960388 
	C288.233643,302.551849 296.391510,307.749268 304.073486,313.769287 
	C302.270081,315.536469 300.579773,316.873749 298.889465,318.210999 
	C287.631683,314.891541 278.560455,308.544586 272.183777,298.338745 
	C275.638458,296.230682 278.876587,294.550659 282.114716,292.870667 
	C282.114716,292.870667 282.119965,292.951904 282.238525,293.161926 
	C282.641907,293.568085 282.926727,293.764221 283.211548,293.960388 
z"/>
<path fill="#1C91F7" opacity="1.000000" stroke="none" 
	d="
M282.155518,292.532440 
	C278.876587,294.550659 275.638458,296.230682 272.049164,298.019775 
	C268.878052,290.974518 266.058136,283.820129 263.255859,276.272705 
	C263.503906,275.409607 263.734344,274.939575 264.356903,274.187256 
	C267.152069,271.946472 269.555115,269.987946 271.958160,268.029419 
	C273.625031,273.499054 275.199982,278.999603 277.021515,284.417236 
	C277.494324,285.823334 278.738312,286.970154 279.894653,288.159119 
	C280.839630,289.452881 281.517944,290.823578 282.155518,292.532440 
z"/>
<path fill="#145CD2" opacity="1.000000" stroke="none" 
	d="
M299.177612,318.429443 
	C300.579773,316.873749 302.270081,315.536469 304.331238,314.022461 
	C311.327209,316.810852 317.952362,319.775970 324.778503,323.063873 
	C316.474915,321.807068 307.970337,320.227509 299.177612,318.429443 
z"/>
<path fill="#1450C1" opacity="1.000000" stroke="none" 
	d="
M299.012695,256.990051 
	C299.282104,257.161224 299.520599,257.368073 299.869141,257.801636 
	C300.670471,261.220673 302.033783,264.484802 301.869995,267.670380 
	C301.144684,281.774841 311.070953,286.522461 323.040131,284.701752 
	C327.775726,283.981384 332.458405,282.913055 337.585632,282.005035 
	C337.988281,284.749756 337.970428,287.492554 337.902527,290.554199 
	C330.448364,296.052917 322.187378,293.848480 314.189697,293.490509 
	C309.401276,293.276184 304.637207,292.518280 299.423584,292.009155 
	C295.201874,288.743317 291.418793,285.473022 287.257263,281.854065 
	C286.252045,281.341431 285.625244,281.177460 284.998444,281.013519 
	C282.575775,280.011871 280.153076,279.010223 277.357513,278.002991 
	C274.269379,267.935242 271.554138,257.873047 269.178284,247.421722 
	C271.382660,247.497177 273.297821,247.818512 275.103973,248.451126 
	C283.090668,251.248550 291.046021,254.135498 299.012695,256.990051 
z"/>
<path fill="#091799" opacity="1.000000" stroke="none" 
	d="
M338.288300,268.982422 
	C338.758728,268.711395 339.555786,268.391174 340.683899,268.040344 
	C340.214935,268.317596 339.414948,268.625427 338.288300,268.982422 
z"/>
<path fill="#0F48C9" opacity="1.000000" stroke="none" 
	d="
M228.757309,303.236023 
	C238.502640,307.753204 248.008347,312.495728 257.723877,317.490723 
	C248.230957,319.021851 239.876938,323.133881 232.048828,329.877869 
	C229.751022,329.305420 228.057968,328.716064 226.496979,327.880127 
	C221.612076,325.264008 216.776993,322.554871 211.922607,319.881775 
	C217.454300,314.408295 222.985977,308.934845 228.757309,303.236023 
z"/>
<path fill="#0B32C2" opacity="1.000000" stroke="none" 
	d="
M211.566101,319.925476 
	C216.776993,322.554871 221.612076,325.264008 226.496979,327.880127 
	C228.057968,328.716064 229.751022,329.305420 231.768585,330.056793 
	C229.657089,333.340790 227.160675,336.575531 224.406250,340.031342 
	C217.672455,336.462860 211.170349,332.717041 204.742310,328.848114 
	C203.404556,328.042969 202.341049,326.782196 201.069641,325.402527 
	C204.395279,323.372162 207.802429,321.670654 211.566101,319.925476 
z"/>
<path fill="#0F48C9" opacity="1.000000" stroke="none" 
	d="
M265.294586,317.751404 
	C265.293121,317.548309 265.514557,317.521027 265.841858,317.693970 
	C265.935120,317.766144 265.504944,317.799133 265.294586,317.751404 
z"/>
<path fill="#0F48C9" opacity="1.000000" stroke="none" 
	d="
M269.274384,317.859009 
	C269.262421,317.619263 269.502167,317.576813 269.865021,317.779907 
	C269.964966,317.865784 269.502869,317.896576 269.274384,317.859009 
z"/>
<path fill="#1244BB" opacity="1.000000" stroke="none" 
	d="
M285.204620,281.210632 
	C285.625244,281.177460 286.252045,281.341431 286.934753,281.758057 
	C286.464050,281.809723 285.937439,281.608734 285.204620,281.210632 
z"/>
<path fill="#1C91F7" opacity="1.000000" stroke="none" 
	d="
M283.077332,293.719177 
	C282.926727,293.764221 282.641907,293.568085 282.197998,293.166016 
	C282.340332,293.132690 282.641693,293.305328 283.077332,293.719177 
z"/>
<path fill="#22AAF8" opacity="1.000000" stroke="none" 
	d="
M271.944763,267.636322 
	C269.555115,269.987946 267.152069,271.946472 264.405151,273.922546 
	C262.781097,267.948608 261.343719,261.985626 260.250458,255.960220 
	C257.074707,238.456955 241.879196,231.706238 225.984726,235.021896 
	C224.396240,235.353256 222.803055,235.662048 220.466278,236.130951 
	C220.817001,234.001129 220.929337,232.420563 221.350739,230.927246 
	C222.648438,226.328720 221.332458,223.106979 217.272552,221.295959 
	C212.019455,218.952637 208.519836,219.594971 206.187759,224.044724 
	C204.939316,226.426834 204.773529,229.376328 204.035980,232.559143 
	C203.952805,233.048508 203.759003,233.212143 203.759003,233.212143 
	C198.662048,230.147476 199.850113,225.351898 200.517273,220.424042 
	C218.538849,209.928162 242.071686,216.916946 254.185501,230.541473 
	C263.804749,241.360306 268.565063,253.784027 271.944763,267.636322 
z"/>
<path fill="#000000" opacity="1.000000" stroke="none" 
	d="
M215.056549,234.402985 
	C210.704987,235.680725 207.950211,234.239899 207.046997,230.108261 
	C206.303589,226.707611 207.982391,224.042313 211.111969,223.180313 
	C214.433365,222.265457 217.207611,223.788406 218.637192,227.156815 
	C220.145691,230.711197 217.097061,232.118149 215.056549,234.402985 
z"/>
<path fill="#22AAF8" opacity="1.000000" stroke="none" 
	d="
M204.050217,232.967316 
	C204.255188,233.249710 204.362747,233.613297 204.470306,233.976883 
	C204.274750,233.837021 204.079193,233.697159 203.821320,233.384720 
	C203.759003,233.212143 203.952805,233.048508 204.050217,232.967316 
z"/>
<path fill="#1450C1" opacity="1.000000" stroke="none" 
	d="
M213.139069,181.624817 
	C211.766052,181.927292 210.603012,181.959305 209.439926,181.988937 
	C205.251297,182.095581 201.570923,180.603210 200.320068,176.570084 
	C199.031906,172.416641 200.072647,168.041412 203.773193,165.353531 
	C207.338745,162.763702 211.040100,163.852798 214.512726,166.880463 
	C214.800003,167.070480 214.901871,167.133102 215.046494,167.332153 
	C215.347427,167.786514 215.549957,167.997452 215.798737,168.164017 
	C215.798737,168.164017 215.864151,168.595520 216.026215,169.021606 
	C216.358292,169.723526 216.575394,169.955246 216.839600,170.142838 
	C217.370331,174.407196 216.856445,178.346283 213.139069,181.624817 
M211.994904,177.499741 
	C215.474823,173.036942 214.434845,167.586029 209.759003,167.237915 
	C207.593842,167.076736 204.471313,168.319977 203.277985,169.992981 
	C202.222855,171.472229 202.468079,174.903946 203.521774,176.629257 
	C205.228409,179.423676 208.327698,179.796463 211.994904,177.499741 
z"/>
<path fill="#0D35A6" opacity="1.000000" stroke="none" 
	d="
M229.899506,158.996002 
	C230.137192,158.681992 230.734848,158.349869 231.679321,157.995209 
	C231.437256,158.307755 230.848358,158.642838 229.899506,158.996002 
z"/>
<path fill="#1B74D4" opacity="1.000000" stroke="none" 
	d="
M215.713898,167.960052 
	C215.549957,167.997452 215.347427,167.786514 215.106171,167.328552 
	C215.269379,167.292023 215.471985,167.502090 215.713898,167.960052 
z"/>
<path fill="#1B74D4" opacity="1.000000" stroke="none" 
	d="
M216.738464,169.925385 
	C216.575394,169.955246 216.358292,169.723526 216.084106,169.232010 
	C216.242706,169.205383 216.461853,169.435913 216.738464,169.925385 
z"/>
<path fill="#000000" opacity="1.000000" stroke="none" 
	d="
M214.093582,196.659790 
	C213.225357,197.795868 212.270248,198.553696 211.135132,199.615112 
	C204.548569,202.848923 198.189926,205.892883 191.701385,208.628693 
	C190.098114,209.304688 187.509628,209.733856 186.398483,208.904312 
	C185.268646,208.060776 185.103546,205.529556 185.065887,203.725906 
	C185.025391,201.786316 185.807526,199.842926 185.909302,197.884476 
	C186.207153,192.151505 190.455154,189.086151 196.180252,190.544388 
	C200.936600,191.755875 205.740082,192.790375 210.467468,194.102295 
	C211.750031,194.458237 212.832428,195.535416 214.093582,196.659790 
z"/>
<path fill="#165BC4" opacity="1.000000" stroke="none" 
	d="
M298.939514,256.651947 
	C291.046021,254.135498 283.090668,251.248550 275.103973,248.451126 
	C273.297821,247.818512 271.382660,247.497177 269.083496,247.042740 
	C262.887115,234.624390 255.051788,223.958115 242.852509,216.570969 
	C242.827194,214.166687 242.947769,212.068893 243.083496,209.531555 
	C246.778915,206.752823 250.192963,203.204742 254.194336,202.323486 
	C262.800232,200.428146 269.750580,206.372757 272.966248,216.985245 
	C273.689911,219.373627 274.247070,221.812454 274.966431,224.602432 
	C276.035004,237.235092 281.896729,245.963013 293.295746,251.051636 
	C295.496979,252.034271 297.026764,254.520966 298.939514,256.651947 
z"/>
<path fill="#000000" opacity="1.000000" stroke="none" 
	d="
M199.226837,282.906006 
	C199.076447,283.289246 199.056458,283.333344 199.019348,283.319641 
	C196.606659,283.878540 194.231094,284.451141 191.502625,285.003540 
	C188.789948,276.057190 186.410812,267.136017 184.087143,258.200470 
	C183.634262,256.458923 183.397064,254.661285 183.102173,252.490723 
	C183.669388,251.895844 184.194839,251.699768 184.874756,251.265381 
	C191.964722,252.982010 198.894470,254.957764 205.839767,256.877289 
	C207.578201,257.357758 209.366653,257.657349 211.691177,258.316772 
	C212.823669,258.665161 213.397110,258.736877 213.970535,258.808594 
	C214.972427,261.238586 215.974304,263.668579 216.952209,266.484467 
	C211.077896,272.087830 205.227570,277.305267 199.226837,282.906006 
z"/>
<path fill="#1450C1" opacity="1.000000" stroke="none" 
	d="
M213.968231,258.526855 
	C213.397110,258.736877 212.823669,258.665161 212.090454,258.340942 
	C212.407272,257.790344 212.883881,257.492249 213.642654,257.158630 
	C213.938507,257.497131 213.952209,257.871094 213.968231,258.526855 
z"/>
<path fill="#000000" opacity="1.000000" stroke="none" 
	d="
M211.661926,177.719604 
	C208.327698,179.796463 205.228409,179.423676 203.521774,176.629257 
	C202.468079,174.903946 202.222855,171.472229 203.277985,169.992981 
	C204.471313,168.319977 207.593842,167.076736 209.759003,167.237915 
	C214.434845,167.586029 215.474823,173.036942 211.661926,177.719604 
z"/>
</svg>